%TF.GenerationSoftware,KiCad,Pcbnew,(6.0.9)*%
%TF.CreationDate,2022-11-13T08:15:32+04:00*%
%TF.ProjectId,osu keyboard,6f737520-6b65-4796-926f-6172642e6b69,rev?*%
%TF.SameCoordinates,Original*%
%TF.FileFunction,Copper,L2,Bot*%
%TF.FilePolarity,Positive*%
%FSLAX46Y46*%
G04 Gerber Fmt 4.6, Leading zero omitted, Abs format (unit mm)*
G04 Created by KiCad (PCBNEW (6.0.9)) date 2022-11-13 08:15:32*
%MOMM*%
%LPD*%
G01*
G04 APERTURE LIST*
G04 Aperture macros list*
%AMRoundRect*
0 Rectangle with rounded corners*
0 $1 Rounding radius*
0 $2 $3 $4 $5 $6 $7 $8 $9 X,Y pos of 4 corners*
0 Add a 4 corners polygon primitive as box body*
4,1,4,$2,$3,$4,$5,$6,$7,$8,$9,$2,$3,0*
0 Add four circle primitives for the rounded corners*
1,1,$1+$1,$2,$3*
1,1,$1+$1,$4,$5*
1,1,$1+$1,$6,$7*
1,1,$1+$1,$8,$9*
0 Add four rect primitives between the rounded corners*
20,1,$1+$1,$2,$3,$4,$5,0*
20,1,$1+$1,$4,$5,$6,$7,0*
20,1,$1+$1,$6,$7,$8,$9,0*
20,1,$1+$1,$8,$9,$2,$3,0*%
G04 Aperture macros list end*
%TA.AperFunction,SMDPad,CuDef*%
%ADD10R,2.550000X2.500000*%
%TD*%
%TA.AperFunction,ComponentPad*%
%ADD11C,1.905000*%
%TD*%
%TA.AperFunction,ComponentPad*%
%ADD12R,1.905000X1.905000*%
%TD*%
%TA.AperFunction,ComponentPad*%
%ADD13O,1.000000X1.600000*%
%TD*%
%TA.AperFunction,ComponentPad*%
%ADD14O,1.000000X2.100000*%
%TD*%
%TA.AperFunction,SMDPad,CuDef*%
%ADD15RoundRect,0.140000X-0.140000X-0.170000X0.140000X-0.170000X0.140000X0.170000X-0.140000X0.170000X0*%
%TD*%
%TA.AperFunction,SMDPad,CuDef*%
%ADD16R,1.500000X0.900000*%
%TD*%
%TA.AperFunction,ViaPad*%
%ADD17C,0.800000*%
%TD*%
%TA.AperFunction,ViaPad*%
%ADD18C,0.500000*%
%TD*%
%TA.AperFunction,Conductor*%
%ADD19C,0.381000*%
%TD*%
%TA.AperFunction,Conductor*%
%ADD20C,0.254000*%
%TD*%
%TA.AperFunction,Conductor*%
%ADD21C,0.508000*%
%TD*%
%TA.AperFunction,Conductor*%
%ADD22C,0.200000*%
%TD*%
%TA.AperFunction,Conductor*%
%ADD23C,0.635000*%
%TD*%
G04 APERTURE END LIST*
D10*
%TO.P,MX0,1,COL*%
%TO.N,/COL0*%
X118391000Y-84455000D03*
%TO.P,MX0,2,ROW*%
%TO.N,GND*%
X131318000Y-81915000D03*
D11*
%TO.P,MX0,3,LED*%
%TO.N,+3V3*%
X124206000Y-92075000D03*
D12*
%TO.P,MX0,4,LEDGND*%
%TO.N,GND*%
X126746000Y-92075000D03*
%TD*%
D13*
%TO.P,USB1,13,SHIELD*%
%TO.N,GND*%
X130566000Y-63201787D03*
X139206000Y-63201787D03*
D14*
X130566000Y-67381787D03*
X139206000Y-67381787D03*
%TD*%
D10*
%TO.P,MX1,1,COL*%
%TO.N,/COL1*%
X137568000Y-84455000D03*
%TO.P,MX1,2,ROW*%
%TO.N,GND*%
X150495000Y-81915000D03*
D11*
%TO.P,MX1,3,LED*%
%TO.N,+3V3*%
X143383000Y-92075000D03*
D12*
%TO.P,MX1,4,LEDGND*%
%TO.N,GND*%
X145923000Y-92075000D03*
%TD*%
D15*
%TO.P,C13,1*%
%TO.N,GND*%
X112931000Y-98311267D03*
%TO.P,C13,2*%
%TO.N,+3V3*%
X113891000Y-98311267D03*
%TD*%
D16*
%TO.P,D4,1,VDD*%
%TO.N,+3V3*%
X159041000Y-100204000D03*
%TO.P,D4,2,DOUT*%
%TO.N,Net-(D1-Pad4)*%
X159041000Y-103504000D03*
%TO.P,D4,3,VSS*%
%TO.N,GND*%
X154141000Y-103504000D03*
%TO.P,D4,4,DIN*%
%TO.N,/UNDERGLOWLED*%
X154141000Y-100204000D03*
%TD*%
D15*
%TO.P,C10,1*%
%TO.N,GND*%
X156111000Y-98438267D03*
%TO.P,C10,2*%
%TO.N,+3V3*%
X157071000Y-98438267D03*
%TD*%
D16*
%TO.P,D1,1,VDD*%
%TO.N,+3V3*%
X115861000Y-100077000D03*
%TO.P,D1,2,DOUT*%
%TO.N,unconnected-(D1-Pad2)*%
X115861000Y-103377000D03*
%TO.P,D1,3,VSS*%
%TO.N,GND*%
X110961000Y-103377000D03*
%TO.P,D1,4,DIN*%
%TO.N,Net-(D1-Pad4)*%
X110961000Y-100077000D03*
%TD*%
D17*
%TO.N,GND*%
X155749214Y-77124787D03*
X132080000Y-118237000D03*
X135243750Y-125741250D03*
X143002000Y-116205000D03*
X133477000Y-111506000D03*
X132080000Y-119380000D03*
X110998000Y-105283000D03*
X109855000Y-87884000D03*
X143891000Y-113792000D03*
X124333000Y-115570000D03*
X130603214Y-69250787D03*
X127762000Y-112141000D03*
X146986214Y-70012787D03*
X125857000Y-121285000D03*
X138604214Y-76362787D03*
X111760000Y-98298000D03*
X120142000Y-105029000D03*
X132207000Y-129667000D03*
X133223000Y-118237000D03*
X133223000Y-117094000D03*
X129413000Y-128397000D03*
X138938000Y-112395000D03*
X138811000Y-122555000D03*
X133223000Y-119380000D03*
X134366000Y-117094000D03*
X132080000Y-117094000D03*
X141906214Y-75092787D03*
X136715500Y-125285500D03*
X131100000Y-123170000D03*
X139112214Y-69250787D03*
X141097000Y-122555000D03*
X134366000Y-118237000D03*
X141351000Y-110236000D03*
X136652000Y-123063000D03*
X134366000Y-119380000D03*
X142621000Y-124333000D03*
D18*
%TO.N,+1V1*%
X131064000Y-116078000D03*
X135382000Y-120396000D03*
X134747000Y-115824000D03*
D17*
%TO.N,+3V3*%
X118745000Y-100076000D03*
X143383000Y-97155000D03*
%TO.N,/UNDERGLOWLED*%
X150876000Y-100203000D03*
%TO.N,/COL0*%
X127297616Y-117710517D03*
%TO.N,/COL1*%
X128297119Y-117710517D03*
%TO.N,/D-*%
X134286214Y-71155787D03*
X136013346Y-71116346D03*
%TO.N,Net-(R3-Pad2)*%
X121920000Y-113538000D03*
X107950000Y-91313000D03*
%TD*%
D19*
%TO.N,GND*%
X110961000Y-103377000D02*
X110961000Y-105119000D01*
D20*
X111773267Y-98311267D02*
X111760000Y-98298000D01*
D19*
X112931000Y-98311267D02*
X111773267Y-98311267D01*
D21*
%TO.N,Net-(D1-Pad4)*%
X110363000Y-106426000D02*
X109601000Y-106426000D01*
X109093000Y-105918000D02*
X109093000Y-100330000D01*
X109346000Y-100077000D02*
X110961000Y-100077000D01*
X156105733Y-106439267D02*
X110376267Y-106439267D01*
X110376267Y-106439267D02*
X110363000Y-106426000D01*
X109093000Y-100330000D02*
X109346000Y-100077000D01*
X109601000Y-106426000D02*
X109093000Y-105918000D01*
X159041000Y-103504000D02*
X156105733Y-106439267D01*
D19*
%TO.N,+3V3*%
X143383000Y-97155000D02*
X143383000Y-92075000D01*
X124206000Y-94615000D02*
X124206000Y-92075000D01*
X157321250Y-97155000D02*
X158604517Y-98438267D01*
D22*
X115861000Y-99210148D02*
X114962119Y-98311267D01*
D19*
X118745000Y-100076000D02*
X115862000Y-100076000D01*
X118745000Y-100076000D02*
X124206000Y-94615000D01*
X115862000Y-100076000D02*
X115861000Y-100077000D01*
D22*
X158623000Y-98419784D02*
X158604517Y-98438267D01*
X115861000Y-100077000D02*
X115861000Y-99210148D01*
D19*
X159041000Y-100204000D02*
X159041000Y-98829148D01*
X159041000Y-98829148D02*
X158650119Y-98438267D01*
X158604517Y-98438267D02*
X157071000Y-98438267D01*
D22*
X158650119Y-98438267D02*
X158604517Y-98438267D01*
X114962119Y-98311267D02*
X113891000Y-98311267D01*
D19*
X143383000Y-97155000D02*
X157321250Y-97155000D01*
%TO.N,/UNDERGLOWLED*%
X154140000Y-100203000D02*
X154141000Y-100204000D01*
X150876000Y-100203000D02*
X154140000Y-100203000D01*
D23*
%TO.N,/COL0*%
X118391000Y-84455000D02*
X118391000Y-70131000D01*
X127297616Y-117710517D02*
X104666483Y-117710517D01*
%TO.N,/COL1*%
X137568000Y-75030000D02*
X144907000Y-67691000D01*
X137568000Y-84455000D02*
X137568000Y-75030000D01*
D21*
X128297119Y-117710517D02*
X128297119Y-114399881D01*
X128297119Y-114399881D02*
X134050000Y-108647000D01*
X134050000Y-108647000D02*
X159196000Y-108647000D01*
D20*
%TO.N,/D-*%
X134286214Y-71155787D02*
X135973905Y-71155787D01*
D22*
X135973905Y-71155787D02*
X136013346Y-71116346D01*
D23*
%TO.N,Net-(R3-Pad2)*%
X109220000Y-113538000D02*
X121920000Y-113538000D01*
X107950000Y-91313000D02*
X107950000Y-112268000D01*
X107950000Y-112268000D02*
X109220000Y-113538000D01*
%TD*%
%TA.AperFunction,Conductor*%
%TO.N,GND*%
G36*
X150558621Y-109429502D02*
G01*
X150605114Y-109483158D01*
X150616500Y-109535500D01*
X150616500Y-134430000D01*
X150596498Y-134498121D01*
X150542842Y-134544614D01*
X150490500Y-134556000D01*
X103173367Y-134556000D01*
X103153982Y-134554500D01*
X103139148Y-134552190D01*
X103139145Y-134552190D01*
X103130276Y-134550809D01*
X103121373Y-134551973D01*
X103121372Y-134551973D01*
X103108126Y-134553705D01*
X103087297Y-134554689D01*
X102843688Y-134545989D01*
X102598514Y-134537232D01*
X102589542Y-134536590D01*
X102071218Y-134480864D01*
X102062315Y-134479584D01*
X101787487Y-134430000D01*
X101549277Y-134387022D01*
X101540491Y-134385111D01*
X101035364Y-134256185D01*
X101026744Y-134253653D01*
X100896089Y-134210167D01*
X100532102Y-134089021D01*
X100523675Y-134085878D01*
X100042035Y-133886376D01*
X100033853Y-133882639D01*
X99567688Y-133649294D01*
X99559794Y-133644984D01*
X99111449Y-133378968D01*
X99103882Y-133374105D01*
X98675661Y-133076786D01*
X98668461Y-133071396D01*
X98262548Y-132744291D01*
X98255750Y-132738401D01*
X97874198Y-132383162D01*
X97867838Y-132376802D01*
X97512599Y-131995250D01*
X97506709Y-131988452D01*
X97179604Y-131582539D01*
X97174214Y-131575339D01*
X96876895Y-131147118D01*
X96872032Y-131139551D01*
X96606016Y-130691206D01*
X96601706Y-130683312D01*
X96368361Y-130217147D01*
X96364624Y-130208965D01*
X96165122Y-129727325D01*
X96161979Y-129718898D01*
X96018394Y-129287494D01*
X95997347Y-129224256D01*
X95994814Y-129215631D01*
X95972747Y-129129171D01*
X95865889Y-128710507D01*
X95863977Y-128701720D01*
X95852449Y-128637821D01*
X95771416Y-128188685D01*
X95770136Y-128179782D01*
X95764102Y-128123655D01*
X101109858Y-128123655D01*
X101145104Y-128382638D01*
X101146412Y-128387124D01*
X101146412Y-128387126D01*
X101166098Y-128454664D01*
X101218243Y-128633567D01*
X101327668Y-128870928D01*
X101330231Y-128874837D01*
X101468410Y-129085596D01*
X101468414Y-129085601D01*
X101470976Y-129089509D01*
X101645018Y-129284506D01*
X101845970Y-129451637D01*
X101849973Y-129454066D01*
X102065422Y-129584804D01*
X102065426Y-129584806D01*
X102069419Y-129587229D01*
X102310455Y-129688303D01*
X102563783Y-129752641D01*
X102568434Y-129753109D01*
X102568438Y-129753110D01*
X102761308Y-129772531D01*
X102780867Y-129774500D01*
X102936354Y-129774500D01*
X102938679Y-129774327D01*
X102938685Y-129774327D01*
X103126000Y-129760407D01*
X103126004Y-129760406D01*
X103130652Y-129760061D01*
X103135200Y-129759032D01*
X103135206Y-129759031D01*
X103321601Y-129716853D01*
X103385577Y-129702377D01*
X103421769Y-129688303D01*
X103624824Y-129609340D01*
X103624827Y-129609339D01*
X103629177Y-129607647D01*
X103856098Y-129477951D01*
X104061357Y-129316138D01*
X104240443Y-129125763D01*
X104389424Y-128911009D01*
X104411284Y-128866682D01*
X104502960Y-128680781D01*
X104502961Y-128680778D01*
X104505025Y-128676593D01*
X104584707Y-128427665D01*
X104626721Y-128169693D01*
X104630142Y-127908345D01*
X104594896Y-127649362D01*
X104580473Y-127599877D01*
X104523068Y-127402932D01*
X104521757Y-127398433D01*
X104412332Y-127161072D01*
X104371882Y-127099376D01*
X104271590Y-126946404D01*
X104271586Y-126946399D01*
X104269024Y-126942491D01*
X104094982Y-126747494D01*
X103894030Y-126580363D01*
X103846844Y-126551730D01*
X103674578Y-126447196D01*
X103674574Y-126447194D01*
X103670581Y-126444771D01*
X103429545Y-126343697D01*
X103176217Y-126279359D01*
X103171566Y-126278891D01*
X103171562Y-126278890D01*
X102962271Y-126257816D01*
X102959133Y-126257500D01*
X102803646Y-126257500D01*
X102801321Y-126257673D01*
X102801315Y-126257673D01*
X102614000Y-126271593D01*
X102613996Y-126271594D01*
X102609348Y-126271939D01*
X102604800Y-126272968D01*
X102604794Y-126272969D01*
X102418399Y-126315147D01*
X102354423Y-126329623D01*
X102350071Y-126331315D01*
X102350069Y-126331316D01*
X102115176Y-126422660D01*
X102115173Y-126422661D01*
X102110823Y-126424353D01*
X101883902Y-126554049D01*
X101678643Y-126715862D01*
X101499557Y-126906237D01*
X101350576Y-127120991D01*
X101348510Y-127125181D01*
X101348508Y-127125184D01*
X101341423Y-127139552D01*
X101234975Y-127355407D01*
X101155293Y-127604335D01*
X101113279Y-127862307D01*
X101109858Y-128123655D01*
X95764102Y-128123655D01*
X95714410Y-127661458D01*
X95713768Y-127652486D01*
X95696716Y-127175025D01*
X95698381Y-127149632D01*
X95699268Y-127144355D01*
X95700076Y-127139552D01*
X95700229Y-127127000D01*
X95696273Y-127099376D01*
X95695000Y-127081514D01*
X95695000Y-123829500D01*
X95715002Y-123761379D01*
X95768658Y-123714886D01*
X95821000Y-123703500D01*
X105284000Y-123703500D01*
X105287346Y-123703140D01*
X105287351Y-123703140D01*
X105389785Y-123692128D01*
X105389792Y-123692127D01*
X105393149Y-123691766D01*
X105396450Y-123691048D01*
X105442210Y-123681094D01*
X105442215Y-123681093D01*
X105445491Y-123680380D01*
X105549657Y-123645710D01*
X105672612Y-123566692D01*
X105726268Y-123520199D01*
X105734297Y-123510933D01*
X105816081Y-123416550D01*
X105816083Y-123416547D01*
X105821982Y-123409739D01*
X105882698Y-123276790D01*
X105902700Y-123208669D01*
X105923500Y-123064000D01*
X105923500Y-118662517D01*
X105943502Y-118594396D01*
X105997158Y-118547903D01*
X106049500Y-118536517D01*
X126892428Y-118536517D01*
X126943677Y-118547410D01*
X127015328Y-118579311D01*
X127108729Y-118599164D01*
X127195672Y-118617645D01*
X127195677Y-118617645D01*
X127202129Y-118619017D01*
X127393103Y-118619017D01*
X127399555Y-118617645D01*
X127399560Y-118617645D01*
X127486503Y-118599164D01*
X127579904Y-118579311D01*
X127746118Y-118505308D01*
X127816485Y-118495874D01*
X127848615Y-118505308D01*
X128008796Y-118576625D01*
X128008804Y-118576628D01*
X128014831Y-118579311D01*
X128108232Y-118599164D01*
X128195175Y-118617645D01*
X128195180Y-118617645D01*
X128201632Y-118619017D01*
X128392606Y-118619017D01*
X128399058Y-118617645D01*
X128399063Y-118617645D01*
X128486006Y-118599164D01*
X128579407Y-118579311D01*
X128649951Y-118547903D01*
X128747841Y-118504320D01*
X128747843Y-118504319D01*
X128753871Y-118501635D01*
X128761801Y-118495874D01*
X128863671Y-118421860D01*
X128908372Y-118389383D01*
X128912794Y-118384472D01*
X129031740Y-118252369D01*
X129031741Y-118252368D01*
X129036159Y-118247461D01*
X129131646Y-118082073D01*
X129190661Y-117900445D01*
X129192066Y-117887082D01*
X129209933Y-117717082D01*
X129210623Y-117710517D01*
X129190661Y-117520589D01*
X129131646Y-117338961D01*
X129076500Y-117243445D01*
X129059619Y-117180446D01*
X129059619Y-116707928D01*
X129079621Y-116639807D01*
X129133277Y-116593314D01*
X129203551Y-116583210D01*
X129268131Y-116612704D01*
X129302594Y-116661099D01*
X129350436Y-116780605D01*
X129376156Y-116825154D01*
X129412242Y-116879392D01*
X129416877Y-116883954D01*
X129509984Y-116975595D01*
X129509987Y-116975597D01*
X129516408Y-116981917D01*
X129524351Y-116986173D01*
X129524353Y-116986174D01*
X129587123Y-117019804D01*
X129645240Y-117050941D01*
X129649466Y-117052479D01*
X129649468Y-117052480D01*
X129665330Y-117058253D01*
X129693578Y-117068534D01*
X129701963Y-117071288D01*
X129719310Y-117076986D01*
X129719315Y-117076987D01*
X129724530Y-117078700D01*
X129758632Y-117083603D01*
X129864752Y-117098861D01*
X129864759Y-117098862D01*
X129869200Y-117099500D01*
X131730082Y-117099500D01*
X131751461Y-117099055D01*
X131756524Y-117098110D01*
X131756528Y-117098110D01*
X131876210Y-117075781D01*
X131878248Y-117075494D01*
X131879920Y-117075088D01*
X131881740Y-117074749D01*
X131890018Y-117073959D01*
X131893548Y-117072546D01*
X131895140Y-117072249D01*
X131906084Y-117068534D01*
X131921203Y-117063402D01*
X131921204Y-117063402D01*
X131933010Y-117059394D01*
X131932324Y-117057373D01*
X131934771Y-117056046D01*
X131959644Y-117046090D01*
X131972996Y-117042256D01*
X131973667Y-117043876D01*
X132031782Y-117019804D01*
X132102372Y-117012215D01*
X132128218Y-117019804D01*
X132168280Y-117036398D01*
X132175104Y-117039465D01*
X132188747Y-117046090D01*
X132200254Y-117051678D01*
X132214180Y-117055054D01*
X132226716Y-117060200D01*
X132226990Y-117059394D01*
X132264240Y-117072039D01*
X132264279Y-117072052D01*
X132264860Y-117072249D01*
X132285248Y-117078700D01*
X132290340Y-117079432D01*
X132290344Y-117079433D01*
X132425470Y-117098861D01*
X132425477Y-117098862D01*
X132429918Y-117099500D01*
X132873082Y-117099500D01*
X132894461Y-117099055D01*
X132899524Y-117098110D01*
X132899528Y-117098110D01*
X133019210Y-117075781D01*
X133021248Y-117075494D01*
X133022920Y-117075088D01*
X133024740Y-117074749D01*
X133033018Y-117073959D01*
X133036548Y-117072546D01*
X133038140Y-117072249D01*
X133049084Y-117068534D01*
X133064203Y-117063402D01*
X133064204Y-117063402D01*
X133076010Y-117059394D01*
X133075324Y-117057373D01*
X133077771Y-117056046D01*
X133102644Y-117046090D01*
X133115996Y-117042256D01*
X133116667Y-117043876D01*
X133174782Y-117019804D01*
X133245372Y-117012215D01*
X133271218Y-117019804D01*
X133311280Y-117036398D01*
X133318104Y-117039465D01*
X133331747Y-117046090D01*
X133343254Y-117051678D01*
X133357180Y-117055054D01*
X133369716Y-117060200D01*
X133369990Y-117059394D01*
X133407240Y-117072039D01*
X133407279Y-117072052D01*
X133407860Y-117072249D01*
X133428248Y-117078700D01*
X133433340Y-117079432D01*
X133433344Y-117079433D01*
X133568470Y-117098861D01*
X133568477Y-117098862D01*
X133572918Y-117099500D01*
X134016082Y-117099500D01*
X134037461Y-117099055D01*
X134042524Y-117098110D01*
X134042528Y-117098110D01*
X134162210Y-117075781D01*
X134164248Y-117075494D01*
X134165920Y-117075088D01*
X134167740Y-117074749D01*
X134176018Y-117073959D01*
X134179548Y-117072546D01*
X134181140Y-117072249D01*
X134192084Y-117068534D01*
X134207203Y-117063402D01*
X134207204Y-117063402D01*
X134219010Y-117059394D01*
X134218324Y-117057373D01*
X134220771Y-117056046D01*
X134245644Y-117046090D01*
X134258995Y-117042254D01*
X134259667Y-117043876D01*
X134271674Y-117038902D01*
X134341852Y-117046424D01*
X134397148Y-117090954D01*
X134419591Y-117158310D01*
X134412252Y-117205452D01*
X134411272Y-117208178D01*
X134408322Y-117214254D01*
X134404947Y-117228178D01*
X134399800Y-117240716D01*
X134400606Y-117240990D01*
X134387751Y-117278860D01*
X134381300Y-117299248D01*
X134380568Y-117304340D01*
X134380567Y-117304344D01*
X134361139Y-117439470D01*
X134361138Y-117439477D01*
X134360500Y-117443918D01*
X134360500Y-117887082D01*
X134360945Y-117908461D01*
X134361890Y-117913524D01*
X134361890Y-117913528D01*
X134384219Y-118033210D01*
X134384506Y-118035248D01*
X134384912Y-118036920D01*
X134385251Y-118038740D01*
X134386041Y-118047018D01*
X134387454Y-118050548D01*
X134387751Y-118052140D01*
X134400606Y-118090010D01*
X134402627Y-118089324D01*
X134403954Y-118091771D01*
X134413910Y-118116644D01*
X134417744Y-118129996D01*
X134416124Y-118130667D01*
X134421308Y-118143182D01*
X134440196Y-118188782D01*
X134447785Y-118259372D01*
X134440196Y-118285218D01*
X134423602Y-118325280D01*
X134420535Y-118332104D01*
X134411274Y-118351175D01*
X134408322Y-118357254D01*
X134404947Y-118371178D01*
X134399800Y-118383716D01*
X134400606Y-118383990D01*
X134387751Y-118421860D01*
X134381300Y-118442248D01*
X134380568Y-118447340D01*
X134380567Y-118447344D01*
X134361139Y-118582470D01*
X134361138Y-118582477D01*
X134360500Y-118586918D01*
X134360500Y-119030082D01*
X134360945Y-119051461D01*
X134361890Y-119056524D01*
X134361890Y-119056528D01*
X134384219Y-119176210D01*
X134384506Y-119178248D01*
X134384912Y-119179920D01*
X134385251Y-119181740D01*
X134386041Y-119190018D01*
X134387454Y-119193548D01*
X134387751Y-119195140D01*
X134400606Y-119233010D01*
X134402627Y-119232324D01*
X134403954Y-119234771D01*
X134413910Y-119259644D01*
X134417744Y-119272996D01*
X134416124Y-119273667D01*
X134421308Y-119286182D01*
X134440196Y-119331782D01*
X134447785Y-119402372D01*
X134440196Y-119428218D01*
X134423602Y-119468280D01*
X134420535Y-119475104D01*
X134411274Y-119494175D01*
X134408322Y-119500254D01*
X134404947Y-119514178D01*
X134399800Y-119526716D01*
X134400606Y-119526990D01*
X134387751Y-119564860D01*
X134381300Y-119585248D01*
X134380568Y-119590340D01*
X134380567Y-119590344D01*
X134361139Y-119725470D01*
X134361138Y-119725477D01*
X134360500Y-119729918D01*
X134360500Y-121590800D01*
X134362453Y-121635538D01*
X134363595Y-121648596D01*
X134376116Y-121724917D01*
X134430436Y-121860605D01*
X134456156Y-121905154D01*
X134492242Y-121959392D01*
X134496877Y-121963954D01*
X134589984Y-122055595D01*
X134589987Y-122055597D01*
X134596408Y-122061917D01*
X134604351Y-122066173D01*
X134604353Y-122066174D01*
X134637334Y-122083844D01*
X134725240Y-122130941D01*
X134729466Y-122132479D01*
X134729468Y-122132480D01*
X134753482Y-122141220D01*
X134773578Y-122148534D01*
X134785010Y-122152289D01*
X134799310Y-122156986D01*
X134799315Y-122156987D01*
X134804530Y-122158700D01*
X134838632Y-122163603D01*
X134944752Y-122178861D01*
X134944759Y-122178862D01*
X134949200Y-122179500D01*
X136576800Y-122179500D01*
X136578170Y-122179440D01*
X136578179Y-122179440D01*
X136591735Y-122178848D01*
X136621538Y-122177547D01*
X136622905Y-122177427D01*
X136622912Y-122177427D01*
X136628057Y-122176977D01*
X136634596Y-122176405D01*
X136710917Y-122163884D01*
X136846605Y-122109564D01*
X136891154Y-122083844D01*
X136945392Y-122047758D01*
X137027876Y-121963954D01*
X137041595Y-121950016D01*
X137041597Y-121950013D01*
X137047917Y-121943592D01*
X137116941Y-121814760D01*
X137134534Y-121766422D01*
X137144700Y-121735470D01*
X137156855Y-121650930D01*
X137164861Y-121595248D01*
X137164862Y-121595241D01*
X137165500Y-121590800D01*
X137165500Y-114883200D01*
X137163547Y-114838462D01*
X137162405Y-114825404D01*
X137149884Y-114749083D01*
X137095564Y-114613395D01*
X137069844Y-114568846D01*
X137033758Y-114514608D01*
X136943978Y-114426242D01*
X136936016Y-114418405D01*
X136936013Y-114418403D01*
X136929592Y-114412083D01*
X136921649Y-114407827D01*
X136921647Y-114407826D01*
X136804728Y-114345185D01*
X136804729Y-114345185D01*
X136800760Y-114343059D01*
X136796534Y-114341521D01*
X136796532Y-114341520D01*
X136762456Y-114329118D01*
X136752422Y-114325466D01*
X136739711Y-114321291D01*
X136726690Y-114317014D01*
X136726685Y-114317013D01*
X136721470Y-114315300D01*
X136685414Y-114310116D01*
X136581248Y-114295139D01*
X136581241Y-114295138D01*
X136576800Y-114294500D01*
X129869200Y-114294500D01*
X129867830Y-114294560D01*
X129867821Y-114294560D01*
X129854562Y-114295139D01*
X129824462Y-114296453D01*
X129823095Y-114296573D01*
X129823088Y-114296573D01*
X129817943Y-114297023D01*
X129811404Y-114297595D01*
X129809078Y-114297977D01*
X129809059Y-114297979D01*
X129798566Y-114299701D01*
X129728105Y-114290993D01*
X129673538Y-114245574D01*
X129652189Y-114177863D01*
X129670836Y-114109359D01*
X129689069Y-114086269D01*
X134328933Y-109446405D01*
X134391245Y-109412379D01*
X134418028Y-109409500D01*
X150490500Y-109409500D01*
X150558621Y-109429502D01*
G37*
%TD.AperFunction*%
%TA.AperFunction,Conductor*%
G36*
X130140370Y-61774252D02*
G01*
X130186863Y-61827908D01*
X130196967Y-61898182D01*
X130167473Y-61962762D01*
X130130624Y-61991912D01*
X130016846Y-62051394D01*
X130006585Y-62058108D01*
X129862127Y-62174255D01*
X129853368Y-62182833D01*
X129734222Y-62324826D01*
X129727292Y-62334946D01*
X129637998Y-62497372D01*
X129633166Y-62508645D01*
X129577120Y-62685325D01*
X129574570Y-62697319D01*
X129558393Y-62841548D01*
X129558000Y-62848572D01*
X129558000Y-62929672D01*
X129562475Y-62944911D01*
X129563865Y-62946116D01*
X129571548Y-62947787D01*
X131555885Y-62947787D01*
X131571124Y-62943312D01*
X131572329Y-62941922D01*
X131574000Y-62934239D01*
X131574000Y-62855130D01*
X131573699Y-62848982D01*
X131560188Y-62711184D01*
X131557805Y-62699149D01*
X131504233Y-62521711D01*
X131499559Y-62510371D01*
X131412540Y-62346710D01*
X131405751Y-62336493D01*
X131288603Y-62192854D01*
X131279959Y-62184150D01*
X131137144Y-62066003D01*
X131126973Y-62059143D01*
X131001105Y-61991086D01*
X130950696Y-61941091D01*
X130935319Y-61871780D01*
X130959855Y-61805158D01*
X131016515Y-61762377D01*
X131061034Y-61754250D01*
X138712249Y-61754250D01*
X138780370Y-61774252D01*
X138826863Y-61827908D01*
X138836967Y-61898182D01*
X138807473Y-61962762D01*
X138770624Y-61991912D01*
X138656846Y-62051394D01*
X138646585Y-62058108D01*
X138502127Y-62174255D01*
X138493368Y-62182833D01*
X138374222Y-62324826D01*
X138367292Y-62334946D01*
X138277998Y-62497372D01*
X138273166Y-62508645D01*
X138217120Y-62685325D01*
X138214570Y-62697319D01*
X138198393Y-62841548D01*
X138198000Y-62848572D01*
X138198000Y-62929672D01*
X138202475Y-62944911D01*
X138203865Y-62946116D01*
X138211548Y-62947787D01*
X140195885Y-62947787D01*
X140211124Y-62943312D01*
X140212329Y-62941922D01*
X140214000Y-62934239D01*
X140214000Y-62855130D01*
X140213699Y-62848982D01*
X140200188Y-62711184D01*
X140197805Y-62699149D01*
X140144233Y-62521711D01*
X140139559Y-62510371D01*
X140052540Y-62346710D01*
X140045751Y-62336493D01*
X139928603Y-62192854D01*
X139919959Y-62184150D01*
X139777144Y-62066003D01*
X139766973Y-62059143D01*
X139641105Y-61991086D01*
X139590696Y-61941091D01*
X139575319Y-61871780D01*
X139599855Y-61805158D01*
X139656515Y-61762377D01*
X139701034Y-61754250D01*
X140380860Y-61754250D01*
X140400253Y-61755751D01*
X140423942Y-61759441D01*
X140432848Y-61758277D01*
X140441816Y-61758387D01*
X140441806Y-61759203D01*
X140463318Y-61759494D01*
X140498679Y-61765096D01*
X140536166Y-61777278D01*
X140580143Y-61799686D01*
X140612032Y-61822854D01*
X140646935Y-61857755D01*
X140670105Y-61889643D01*
X140692515Y-61933618D01*
X140704698Y-61971101D01*
X140710118Y-62005293D01*
X140711566Y-62025205D01*
X140710308Y-62033289D01*
X140712764Y-62052052D01*
X140714434Y-62064811D01*
X140715500Y-62081164D01*
X140715500Y-62780021D01*
X140713755Y-62800918D01*
X140710423Y-62820730D01*
X140710271Y-62833282D01*
X140710959Y-62838087D01*
X140710960Y-62838097D01*
X140712371Y-62847942D01*
X140713255Y-62855907D01*
X140727566Y-63037620D01*
X140745951Y-63114184D01*
X140763261Y-63186270D01*
X140775424Y-63236924D01*
X140853869Y-63426289D01*
X140856454Y-63430508D01*
X140856456Y-63430511D01*
X140928729Y-63548444D01*
X140960969Y-63601053D01*
X141094087Y-63756913D01*
X141249947Y-63890031D01*
X141254170Y-63892619D01*
X141420489Y-63994544D01*
X141420492Y-63994546D01*
X141424711Y-63997131D01*
X141429283Y-63999025D01*
X141429285Y-63999026D01*
X141501844Y-64029084D01*
X141614076Y-64075576D01*
X141618893Y-64076733D01*
X141618897Y-64076734D01*
X141713728Y-64099505D01*
X141813380Y-64123434D01*
X141892756Y-64129685D01*
X141976885Y-64136311D01*
X141987905Y-64137670D01*
X142000364Y-64139767D01*
X142000367Y-64139767D01*
X142005166Y-64140575D01*
X142010024Y-64140635D01*
X142010028Y-64140635D01*
X142011351Y-64140651D01*
X142017718Y-64140729D01*
X142045368Y-64136771D01*
X142063222Y-64135500D01*
X142956182Y-64135500D01*
X143024303Y-64155502D01*
X143070796Y-64209158D01*
X143082172Y-64263075D01*
X143046419Y-67123312D01*
X143031421Y-68323203D01*
X143031109Y-68348125D01*
X143010257Y-68415990D01*
X142994214Y-68435645D01*
X137012245Y-74417615D01*
X137004478Y-74424758D01*
X136966307Y-74457015D01*
X136962164Y-74462434D01*
X136962163Y-74462435D01*
X136918869Y-74519062D01*
X136916971Y-74521482D01*
X136868031Y-74582350D01*
X136864998Y-74588460D01*
X136863696Y-74590496D01*
X136863377Y-74590952D01*
X136862967Y-74591610D01*
X136862698Y-74592100D01*
X136861447Y-74594166D01*
X136857303Y-74599586D01*
X136824305Y-74670351D01*
X136822971Y-74673122D01*
X136788233Y-74743102D01*
X136786581Y-74749727D01*
X136785747Y-74751994D01*
X136785528Y-74752519D01*
X136785279Y-74753223D01*
X136785117Y-74753773D01*
X136784339Y-74756057D01*
X136781457Y-74762239D01*
X136779969Y-74768897D01*
X136779966Y-74768905D01*
X136764419Y-74838458D01*
X136763711Y-74841454D01*
X136746467Y-74910615D01*
X136744816Y-74917238D01*
X136744625Y-74924059D01*
X136744297Y-74926456D01*
X136744096Y-74927570D01*
X136743434Y-74932344D01*
X136742307Y-74937384D01*
X136742000Y-74942875D01*
X136742000Y-75016289D01*
X136741951Y-75019807D01*
X136739805Y-75096635D01*
X136741084Y-75103342D01*
X136741594Y-75109677D01*
X136742000Y-75119784D01*
X136742000Y-82570500D01*
X136721998Y-82638621D01*
X136668342Y-82685114D01*
X136616000Y-82696500D01*
X136244866Y-82696500D01*
X136182684Y-82703255D01*
X136046295Y-82754385D01*
X135929739Y-82841739D01*
X135842385Y-82958295D01*
X135791255Y-83094684D01*
X135784500Y-83156866D01*
X135784500Y-85753134D01*
X135791255Y-85815316D01*
X135842385Y-85951705D01*
X135929739Y-86068261D01*
X136046295Y-86155615D01*
X136182684Y-86206745D01*
X136244866Y-86213500D01*
X138212840Y-86213500D01*
X138280961Y-86233502D01*
X138327454Y-86287158D01*
X138337558Y-86357432D01*
X138325157Y-86396605D01*
X138286513Y-86472612D01*
X138216889Y-86696840D01*
X138216188Y-86702129D01*
X138199092Y-86831116D01*
X138186039Y-86929593D01*
X138194848Y-87164216D01*
X138195943Y-87169434D01*
X138220794Y-87287871D01*
X138243062Y-87394001D01*
X138329302Y-87612377D01*
X138451104Y-87813100D01*
X138604985Y-87990432D01*
X138609117Y-87993820D01*
X138782416Y-88135917D01*
X138782422Y-88135921D01*
X138786544Y-88139301D01*
X138791180Y-88141940D01*
X138791183Y-88141942D01*
X138902408Y-88205255D01*
X138990590Y-88255451D01*
X139211289Y-88335561D01*
X139216538Y-88336510D01*
X139216541Y-88336511D01*
X139297615Y-88351171D01*
X139442330Y-88377340D01*
X139446469Y-88377535D01*
X139446476Y-88377536D01*
X139465440Y-88378430D01*
X139465449Y-88378430D01*
X139466929Y-88378500D01*
X139631950Y-88378500D01*
X139713299Y-88371597D01*
X139801637Y-88364102D01*
X139801641Y-88364101D01*
X139806948Y-88363651D01*
X139812103Y-88362313D01*
X139812109Y-88362312D01*
X140029035Y-88306009D01*
X140029034Y-88306009D01*
X140034206Y-88304667D01*
X140039072Y-88302475D01*
X140039075Y-88302474D01*
X140243417Y-88210424D01*
X140243420Y-88210423D01*
X140248278Y-88208234D01*
X140443041Y-88077112D01*
X140612927Y-87915049D01*
X140753078Y-87726679D01*
X140813719Y-87607408D01*
X140857069Y-87522144D01*
X140857069Y-87522143D01*
X140859487Y-87517388D01*
X140929111Y-87293160D01*
X140946202Y-87164216D01*
X140959261Y-87065690D01*
X140959261Y-87065687D01*
X140959961Y-87060407D01*
X140951152Y-86825784D01*
X140938690Y-86766392D01*
X140905373Y-86607602D01*
X140910960Y-86536826D01*
X140953925Y-86480305D01*
X141019898Y-86456035D01*
X141053355Y-86453696D01*
X141118828Y-86449118D01*
X141118834Y-86449117D01*
X141123212Y-86448811D01*
X141397970Y-86390409D01*
X141402099Y-86388906D01*
X141402103Y-86388905D01*
X141657781Y-86295846D01*
X141657785Y-86295844D01*
X141661926Y-86294337D01*
X141909942Y-86162464D01*
X142094327Y-86028501D01*
X142161195Y-86004642D01*
X142230347Y-86020723D01*
X142279827Y-86071637D01*
X142293926Y-86141220D01*
X142285540Y-86176820D01*
X142268370Y-86220187D01*
X142190064Y-86525170D01*
X142150600Y-86837562D01*
X142150600Y-87152438D01*
X142190064Y-87464830D01*
X142268370Y-87769813D01*
X142384284Y-88062577D01*
X142386186Y-88066036D01*
X142386187Y-88066039D01*
X142518112Y-88306009D01*
X142535976Y-88338504D01*
X142721055Y-88593244D01*
X142936602Y-88822778D01*
X143179218Y-89023487D01*
X143445076Y-89192206D01*
X143448655Y-89193890D01*
X143448662Y-89193894D01*
X143726394Y-89324584D01*
X143726398Y-89324586D01*
X143729984Y-89326273D01*
X144029448Y-89423575D01*
X144338746Y-89482577D01*
X144432300Y-89488463D01*
X144572358Y-89497275D01*
X144572374Y-89497276D01*
X144574353Y-89497400D01*
X144731647Y-89497400D01*
X144733626Y-89497276D01*
X144733642Y-89497275D01*
X144873700Y-89488463D01*
X144967254Y-89482577D01*
X145276552Y-89423575D01*
X145576016Y-89326273D01*
X145579602Y-89324586D01*
X145579606Y-89324584D01*
X145857338Y-89193894D01*
X145857345Y-89193890D01*
X145860924Y-89192206D01*
X146126782Y-89023487D01*
X146369398Y-88822778D01*
X146584945Y-88593244D01*
X146770024Y-88338504D01*
X146787889Y-88306009D01*
X146919813Y-88066039D01*
X146919814Y-88066036D01*
X146921716Y-88062577D01*
X147037630Y-87769813D01*
X147115936Y-87464830D01*
X147155400Y-87152438D01*
X147155400Y-86929593D01*
X148346039Y-86929593D01*
X148354848Y-87164216D01*
X148355943Y-87169434D01*
X148380794Y-87287871D01*
X148403062Y-87394001D01*
X148489302Y-87612377D01*
X148611104Y-87813100D01*
X148764985Y-87990432D01*
X148769117Y-87993820D01*
X148942416Y-88135917D01*
X148942422Y-88135921D01*
X148946544Y-88139301D01*
X148951180Y-88141940D01*
X148951183Y-88141942D01*
X149062408Y-88205255D01*
X149150590Y-88255451D01*
X149371289Y-88335561D01*
X149376538Y-88336510D01*
X149376541Y-88336511D01*
X149457615Y-88351171D01*
X149602330Y-88377340D01*
X149606469Y-88377535D01*
X149606476Y-88377536D01*
X149625440Y-88378430D01*
X149625449Y-88378430D01*
X149626929Y-88378500D01*
X149791950Y-88378500D01*
X149873299Y-88371597D01*
X149961637Y-88364102D01*
X149961641Y-88364101D01*
X149966948Y-88363651D01*
X149972103Y-88362313D01*
X149972109Y-88362312D01*
X150189035Y-88306009D01*
X150189034Y-88306009D01*
X150194206Y-88304667D01*
X150199072Y-88302475D01*
X150199075Y-88302474D01*
X150403417Y-88210424D01*
X150403420Y-88210423D01*
X150408278Y-88208234D01*
X150603041Y-88077112D01*
X150772927Y-87915049D01*
X150913078Y-87726679D01*
X150973719Y-87607408D01*
X151017069Y-87522144D01*
X151017069Y-87522143D01*
X151019487Y-87517388D01*
X151089111Y-87293160D01*
X151106202Y-87164216D01*
X151119261Y-87065690D01*
X151119261Y-87065687D01*
X151119961Y-87060407D01*
X151111152Y-86825784D01*
X151093358Y-86740978D01*
X151064035Y-86601226D01*
X151064034Y-86601223D01*
X151062938Y-86595999D01*
X150976698Y-86377623D01*
X150878936Y-86216517D01*
X150857664Y-86181461D01*
X150857662Y-86181458D01*
X150854896Y-86176900D01*
X150701015Y-85999568D01*
X150632388Y-85943297D01*
X150523584Y-85854083D01*
X150523578Y-85854079D01*
X150519456Y-85850699D01*
X150514820Y-85848060D01*
X150514817Y-85848058D01*
X150320053Y-85737192D01*
X150315410Y-85734549D01*
X150094711Y-85654439D01*
X150089462Y-85653490D01*
X150089459Y-85653489D01*
X150008385Y-85638829D01*
X149863670Y-85612660D01*
X149859531Y-85612465D01*
X149859524Y-85612464D01*
X149840560Y-85611570D01*
X149840551Y-85611570D01*
X149839071Y-85611500D01*
X149674050Y-85611500D01*
X149592701Y-85618403D01*
X149504363Y-85625898D01*
X149504359Y-85625899D01*
X149499052Y-85626349D01*
X149493897Y-85627687D01*
X149493891Y-85627688D01*
X149316177Y-85673814D01*
X149271794Y-85685333D01*
X149266928Y-85687525D01*
X149266925Y-85687526D01*
X149062583Y-85779576D01*
X149062580Y-85779577D01*
X149057722Y-85781766D01*
X148862959Y-85912888D01*
X148693073Y-86074951D01*
X148552922Y-86263321D01*
X148550506Y-86268072D01*
X148550504Y-86268076D01*
X148489072Y-86388905D01*
X148446513Y-86472612D01*
X148376889Y-86696840D01*
X148376188Y-86702129D01*
X148359092Y-86831116D01*
X148346039Y-86929593D01*
X147155400Y-86929593D01*
X147155400Y-86837562D01*
X147115936Y-86525170D01*
X147037630Y-86220187D01*
X146921716Y-85927423D01*
X146915749Y-85916569D01*
X146771933Y-85654968D01*
X146771931Y-85654965D01*
X146770024Y-85651496D01*
X146584945Y-85396756D01*
X146369398Y-85167222D01*
X146126782Y-84966513D01*
X145860924Y-84797794D01*
X145857345Y-84796110D01*
X145857338Y-84796106D01*
X145579606Y-84665416D01*
X145579602Y-84665414D01*
X145576016Y-84663727D01*
X145276552Y-84566425D01*
X144967254Y-84507423D01*
X144873700Y-84501537D01*
X144733642Y-84492725D01*
X144733626Y-84492724D01*
X144731647Y-84492600D01*
X144574353Y-84492600D01*
X144572374Y-84492724D01*
X144572358Y-84492725D01*
X144432300Y-84501537D01*
X144338746Y-84507423D01*
X144029448Y-84566425D01*
X143729984Y-84663727D01*
X143726398Y-84665414D01*
X143726394Y-84665416D01*
X143448662Y-84796106D01*
X143448655Y-84796110D01*
X143445076Y-84797794D01*
X143179218Y-84966513D01*
X143099249Y-85032669D01*
X142978413Y-85132633D01*
X142913176Y-85160643D01*
X142843151Y-85148936D01*
X142790571Y-85101229D01*
X142772131Y-85032669D01*
X142775841Y-85005066D01*
X142824753Y-84808893D01*
X142824754Y-84808888D01*
X142825817Y-84804624D01*
X142826713Y-84796106D01*
X142854719Y-84529636D01*
X142854719Y-84529633D01*
X142855178Y-84525267D01*
X142854555Y-84507423D01*
X142845529Y-84248939D01*
X142845528Y-84248933D01*
X142845375Y-84244542D01*
X142796598Y-83967913D01*
X142709797Y-83700765D01*
X142706750Y-83694516D01*
X142652687Y-83583672D01*
X142586660Y-83448298D01*
X142584205Y-83444659D01*
X142584202Y-83444653D01*
X142511110Y-83336290D01*
X142429585Y-83215424D01*
X142241629Y-83006678D01*
X142026450Y-82826121D01*
X141788236Y-82677269D01*
X141531625Y-82563018D01*
X141261610Y-82485593D01*
X141257260Y-82484982D01*
X141257257Y-82484981D01*
X141154310Y-82470513D01*
X140983448Y-82446500D01*
X140772854Y-82446500D01*
X140770668Y-82446653D01*
X140770664Y-82446653D01*
X140567173Y-82460882D01*
X140567168Y-82460883D01*
X140562788Y-82461189D01*
X140288030Y-82519591D01*
X140283901Y-82521094D01*
X140283897Y-82521095D01*
X140028219Y-82614154D01*
X140028215Y-82614156D01*
X140024074Y-82615663D01*
X139776058Y-82747536D01*
X139772499Y-82750122D01*
X139772497Y-82750123D01*
X139636516Y-82848919D01*
X139548808Y-82912642D01*
X139545644Y-82915698D01*
X139545641Y-82915700D01*
X139483337Y-82975867D01*
X139420441Y-83008799D01*
X139349724Y-83002499D01*
X139293960Y-82959215D01*
X139293615Y-82958295D01*
X139206261Y-82841739D01*
X139089705Y-82754385D01*
X138953316Y-82703255D01*
X138891134Y-82696500D01*
X138520000Y-82696500D01*
X138451879Y-82676498D01*
X138405386Y-82622842D01*
X138394000Y-82570500D01*
X138394000Y-81844733D01*
X145180822Y-81844733D01*
X145190625Y-82125458D01*
X145191387Y-82129781D01*
X145191388Y-82129788D01*
X145215164Y-82264624D01*
X145239402Y-82402087D01*
X145326203Y-82669235D01*
X145328131Y-82673188D01*
X145328133Y-82673193D01*
X145383313Y-82786328D01*
X145449340Y-82921702D01*
X145451795Y-82925341D01*
X145451798Y-82925347D01*
X145503838Y-83002499D01*
X145606415Y-83154576D01*
X145609360Y-83157847D01*
X145609361Y-83157848D01*
X145656024Y-83209672D01*
X145794371Y-83363322D01*
X146009550Y-83543879D01*
X146247764Y-83692731D01*
X146504375Y-83806982D01*
X146774390Y-83884407D01*
X146778740Y-83885018D01*
X146778743Y-83885019D01*
X146881690Y-83899487D01*
X147052552Y-83923500D01*
X147263146Y-83923500D01*
X147265332Y-83923347D01*
X147265336Y-83923347D01*
X147468827Y-83909118D01*
X147468832Y-83909117D01*
X147473212Y-83908811D01*
X147747970Y-83850409D01*
X147752099Y-83848906D01*
X147752103Y-83848905D01*
X148007781Y-83755846D01*
X148007785Y-83755844D01*
X148011926Y-83754337D01*
X148259942Y-83622464D01*
X148263503Y-83619877D01*
X148483629Y-83459947D01*
X148483632Y-83459944D01*
X148487192Y-83457358D01*
X148492482Y-83452250D01*
X148570702Y-83376713D01*
X148633598Y-83343781D01*
X148704315Y-83350081D01*
X148760399Y-83393613D01*
X148768749Y-83406841D01*
X148775212Y-83418646D01*
X148851715Y-83520724D01*
X148864276Y-83533285D01*
X148966351Y-83609786D01*
X148981946Y-83618324D01*
X149102394Y-83663478D01*
X149117649Y-83667105D01*
X149168514Y-83672631D01*
X149175328Y-83673000D01*
X150222885Y-83673000D01*
X150238124Y-83668525D01*
X150239329Y-83667135D01*
X150241000Y-83659452D01*
X150241000Y-83654884D01*
X150749000Y-83654884D01*
X150753475Y-83670123D01*
X150754865Y-83671328D01*
X150762548Y-83672999D01*
X151814669Y-83672999D01*
X151821490Y-83672629D01*
X151872352Y-83667105D01*
X151887604Y-83663479D01*
X152008054Y-83618324D01*
X152023649Y-83609786D01*
X152125724Y-83533285D01*
X152138285Y-83520724D01*
X152214786Y-83418649D01*
X152223324Y-83403054D01*
X152268478Y-83282606D01*
X152272105Y-83267351D01*
X152277631Y-83216486D01*
X152278000Y-83209672D01*
X152278000Y-82187115D01*
X152273525Y-82171876D01*
X152272135Y-82170671D01*
X152264452Y-82169000D01*
X150767115Y-82169000D01*
X150751876Y-82173475D01*
X150750671Y-82174865D01*
X150749000Y-82182548D01*
X150749000Y-83654884D01*
X150241000Y-83654884D01*
X150241000Y-81642885D01*
X150749000Y-81642885D01*
X150753475Y-81658124D01*
X150754865Y-81659329D01*
X150762548Y-81661000D01*
X152259884Y-81661000D01*
X152275123Y-81656525D01*
X152276328Y-81655135D01*
X152277999Y-81647452D01*
X152277999Y-80620331D01*
X152277629Y-80613510D01*
X152272105Y-80562648D01*
X152268479Y-80547396D01*
X152223324Y-80426946D01*
X152214786Y-80411351D01*
X152138285Y-80309276D01*
X152125724Y-80296715D01*
X152023649Y-80220214D01*
X152008054Y-80211676D01*
X151887606Y-80166522D01*
X151872351Y-80162895D01*
X151821486Y-80157369D01*
X151814672Y-80157000D01*
X150767115Y-80157000D01*
X150751876Y-80161475D01*
X150750671Y-80162865D01*
X150749000Y-80170548D01*
X150749000Y-81642885D01*
X150241000Y-81642885D01*
X150241000Y-80175116D01*
X150236525Y-80159877D01*
X150235135Y-80158672D01*
X150227452Y-80157001D01*
X149175331Y-80157001D01*
X149168510Y-80157371D01*
X149117648Y-80162895D01*
X149102396Y-80166521D01*
X148981946Y-80211676D01*
X148966351Y-80220214D01*
X148864276Y-80296715D01*
X148851715Y-80309276D01*
X148775210Y-80411356D01*
X148770462Y-80420029D01*
X148720204Y-80470174D01*
X148650813Y-80485188D01*
X148578952Y-80456040D01*
X148379829Y-80288956D01*
X148379826Y-80288954D01*
X148376450Y-80286121D01*
X148138236Y-80137269D01*
X147881625Y-80023018D01*
X147611610Y-79945593D01*
X147607260Y-79944982D01*
X147607257Y-79944981D01*
X147504310Y-79930513D01*
X147333448Y-79906500D01*
X147122854Y-79906500D01*
X147120668Y-79906653D01*
X147120664Y-79906653D01*
X146917173Y-79920882D01*
X146917168Y-79920883D01*
X146912788Y-79921189D01*
X146638030Y-79979591D01*
X146633901Y-79981094D01*
X146633897Y-79981095D01*
X146378219Y-80074154D01*
X146378215Y-80074156D01*
X146374074Y-80075663D01*
X146126058Y-80207536D01*
X146122499Y-80210122D01*
X146122497Y-80210123D01*
X146017895Y-80286121D01*
X145898808Y-80372642D01*
X145895644Y-80375698D01*
X145895641Y-80375700D01*
X145812447Y-80456040D01*
X145696748Y-80567769D01*
X145523812Y-80789118D01*
X145521616Y-80792922D01*
X145521611Y-80792929D01*
X145455003Y-80908298D01*
X145383364Y-81032381D01*
X145278138Y-81292824D01*
X145210183Y-81565376D01*
X145209724Y-81569744D01*
X145209723Y-81569749D01*
X145195556Y-81704542D01*
X145180822Y-81844733D01*
X138394000Y-81844733D01*
X138394000Y-75424331D01*
X138414002Y-75356210D01*
X138430905Y-75335236D01*
X142790185Y-70975956D01*
X142852497Y-70941930D01*
X142923312Y-70946995D01*
X142980148Y-70989542D01*
X143004679Y-71052758D01*
X143009157Y-71098435D01*
X143020533Y-71152352D01*
X143055875Y-71259657D01*
X143134893Y-71382612D01*
X143181386Y-71436268D01*
X143184779Y-71439208D01*
X143285035Y-71526081D01*
X143285038Y-71526083D01*
X143291846Y-71531982D01*
X143424795Y-71592698D01*
X143442580Y-71597920D01*
X143488593Y-71611431D01*
X143488597Y-71611432D01*
X143492916Y-71612700D01*
X143497365Y-71613340D01*
X143497371Y-71613341D01*
X143633138Y-71632861D01*
X143633143Y-71632861D01*
X143637585Y-71633500D01*
X145924000Y-71633500D01*
X145927346Y-71633140D01*
X145927351Y-71633140D01*
X146029785Y-71622128D01*
X146029792Y-71622127D01*
X146033149Y-71621766D01*
X146036450Y-71621048D01*
X146082210Y-71611094D01*
X146082215Y-71611093D01*
X146085491Y-71610380D01*
X146189657Y-71575710D01*
X146312612Y-71496692D01*
X146322757Y-71487902D01*
X146362875Y-71453139D01*
X146366268Y-71450199D01*
X146421888Y-71386010D01*
X146456081Y-71346550D01*
X146456083Y-71346547D01*
X146461982Y-71339739D01*
X146522698Y-71206790D01*
X146537674Y-71155787D01*
X146541431Y-71142992D01*
X146541432Y-71142988D01*
X146542700Y-71138669D01*
X146546854Y-71109781D01*
X146562861Y-70998447D01*
X146562861Y-70998442D01*
X146563500Y-70994000D01*
X146563500Y-69727500D01*
X146583502Y-69659379D01*
X146637158Y-69612886D01*
X146689500Y-69601500D01*
X147315500Y-69601500D01*
X147383621Y-69621502D01*
X147430114Y-69675158D01*
X147441500Y-69727500D01*
X147441500Y-70994000D01*
X147441860Y-70997346D01*
X147441860Y-70997351D01*
X147452357Y-71094987D01*
X147453234Y-71103149D01*
X147453952Y-71106449D01*
X147453952Y-71106450D01*
X147460961Y-71138669D01*
X147464620Y-71155491D01*
X147499290Y-71259657D01*
X147578308Y-71382612D01*
X147624801Y-71436268D01*
X147628194Y-71439208D01*
X147728450Y-71526081D01*
X147728453Y-71526083D01*
X147735261Y-71531982D01*
X147868210Y-71592698D01*
X147885995Y-71597920D01*
X147932008Y-71611431D01*
X147932012Y-71611432D01*
X147936331Y-71612700D01*
X147940780Y-71613340D01*
X147940786Y-71613341D01*
X148076553Y-71632861D01*
X148076558Y-71632861D01*
X148081000Y-71633500D01*
X152824839Y-71633500D01*
X152892960Y-71653502D01*
X152899582Y-71658063D01*
X164535243Y-80231708D01*
X164578219Y-80288220D01*
X164586500Y-80333145D01*
X164586500Y-106040500D01*
X164566498Y-106108621D01*
X164512842Y-106155114D01*
X164460500Y-106166500D01*
X157761028Y-106166500D01*
X157692907Y-106146498D01*
X157646414Y-106092842D01*
X157636310Y-106022568D01*
X157665804Y-105957988D01*
X157671933Y-105951405D01*
X159123933Y-104499405D01*
X159186245Y-104465379D01*
X159213028Y-104462500D01*
X159839134Y-104462500D01*
X159901316Y-104455745D01*
X160037705Y-104404615D01*
X160154261Y-104317261D01*
X160241615Y-104200705D01*
X160292745Y-104064316D01*
X160299500Y-104002134D01*
X160299500Y-103005866D01*
X160292745Y-102943684D01*
X160241615Y-102807295D01*
X160154261Y-102690739D01*
X160037705Y-102603385D01*
X159901316Y-102552255D01*
X159839134Y-102545500D01*
X158242866Y-102545500D01*
X158180684Y-102552255D01*
X158044295Y-102603385D01*
X157927739Y-102690739D01*
X157840385Y-102807295D01*
X157789255Y-102943684D01*
X157782500Y-103005866D01*
X157782500Y-103631972D01*
X157762498Y-103700093D01*
X157745595Y-103721067D01*
X155826800Y-105639862D01*
X155764488Y-105673888D01*
X155737705Y-105676767D01*
X110524453Y-105676767D01*
X110494505Y-105673156D01*
X110492812Y-105672742D01*
X110457888Y-105664196D01*
X110452286Y-105663848D01*
X110452283Y-105663848D01*
X110446670Y-105663500D01*
X110446672Y-105663461D01*
X110442771Y-105663228D01*
X110438412Y-105662839D01*
X110431244Y-105661348D01*
X110423927Y-105661546D01*
X110353423Y-105663454D01*
X110350014Y-105663500D01*
X109981500Y-105663500D01*
X109913379Y-105643498D01*
X109866886Y-105589842D01*
X109855500Y-105537500D01*
X109855500Y-104418094D01*
X109875502Y-104349973D01*
X109929158Y-104303480D01*
X109999432Y-104293376D01*
X110025730Y-104300112D01*
X110093394Y-104325478D01*
X110108649Y-104329105D01*
X110159514Y-104334631D01*
X110166328Y-104335000D01*
X110688885Y-104335000D01*
X110704124Y-104330525D01*
X110705329Y-104329135D01*
X110707000Y-104321452D01*
X110707000Y-104316884D01*
X111215000Y-104316884D01*
X111219475Y-104332123D01*
X111220865Y-104333328D01*
X111228548Y-104334999D01*
X111755669Y-104334999D01*
X111762490Y-104334629D01*
X111813352Y-104329105D01*
X111828604Y-104325479D01*
X111949054Y-104280324D01*
X111964649Y-104271786D01*
X112066724Y-104195285D01*
X112079285Y-104182724D01*
X112155786Y-104080649D01*
X112164324Y-104065054D01*
X112209478Y-103944606D01*
X112213105Y-103929351D01*
X112218631Y-103878486D01*
X112218813Y-103875134D01*
X114602500Y-103875134D01*
X114609255Y-103937316D01*
X114660385Y-104073705D01*
X114747739Y-104190261D01*
X114864295Y-104277615D01*
X115000684Y-104328745D01*
X115062866Y-104335500D01*
X116659134Y-104335500D01*
X116721316Y-104328745D01*
X116857705Y-104277615D01*
X116974261Y-104190261D01*
X117061615Y-104073705D01*
X117089745Y-103998669D01*
X152883001Y-103998669D01*
X152883371Y-104005490D01*
X152888895Y-104056352D01*
X152892521Y-104071604D01*
X152937676Y-104192054D01*
X152946214Y-104207649D01*
X153022715Y-104309724D01*
X153035276Y-104322285D01*
X153137351Y-104398786D01*
X153152946Y-104407324D01*
X153273394Y-104452478D01*
X153288649Y-104456105D01*
X153339514Y-104461631D01*
X153346328Y-104462000D01*
X153868885Y-104462000D01*
X153884124Y-104457525D01*
X153885329Y-104456135D01*
X153887000Y-104448452D01*
X153887000Y-104443884D01*
X154395000Y-104443884D01*
X154399475Y-104459123D01*
X154400865Y-104460328D01*
X154408548Y-104461999D01*
X154935669Y-104461999D01*
X154942490Y-104461629D01*
X154993352Y-104456105D01*
X155008604Y-104452479D01*
X155129054Y-104407324D01*
X155144649Y-104398786D01*
X155246724Y-104322285D01*
X155259285Y-104309724D01*
X155335786Y-104207649D01*
X155344324Y-104192054D01*
X155389478Y-104071606D01*
X155393105Y-104056351D01*
X155398631Y-104005486D01*
X155399000Y-103998672D01*
X155399000Y-103776115D01*
X155394525Y-103760876D01*
X155393135Y-103759671D01*
X155385452Y-103758000D01*
X154413115Y-103758000D01*
X154397876Y-103762475D01*
X154396671Y-103763865D01*
X154395000Y-103771548D01*
X154395000Y-104443884D01*
X153887000Y-104443884D01*
X153887000Y-103776115D01*
X153882525Y-103760876D01*
X153881135Y-103759671D01*
X153873452Y-103758000D01*
X152901116Y-103758000D01*
X152885877Y-103762475D01*
X152884672Y-103763865D01*
X152883001Y-103771548D01*
X152883001Y-103998669D01*
X117089745Y-103998669D01*
X117112745Y-103937316D01*
X117119500Y-103875134D01*
X117119500Y-103231885D01*
X152883000Y-103231885D01*
X152887475Y-103247124D01*
X152888865Y-103248329D01*
X152896548Y-103250000D01*
X153868885Y-103250000D01*
X153884124Y-103245525D01*
X153885329Y-103244135D01*
X153887000Y-103236452D01*
X153887000Y-103231885D01*
X154395000Y-103231885D01*
X154399475Y-103247124D01*
X154400865Y-103248329D01*
X154408548Y-103250000D01*
X155380884Y-103250000D01*
X155396123Y-103245525D01*
X155397328Y-103244135D01*
X155398999Y-103236452D01*
X155398999Y-103009331D01*
X155398629Y-103002510D01*
X155393105Y-102951648D01*
X155389479Y-102936396D01*
X155344324Y-102815946D01*
X155335786Y-102800351D01*
X155259285Y-102698276D01*
X155246724Y-102685715D01*
X155144649Y-102609214D01*
X155129054Y-102600676D01*
X155008606Y-102555522D01*
X154993351Y-102551895D01*
X154942486Y-102546369D01*
X154935672Y-102546000D01*
X154413115Y-102546000D01*
X154397876Y-102550475D01*
X154396671Y-102551865D01*
X154395000Y-102559548D01*
X154395000Y-103231885D01*
X153887000Y-103231885D01*
X153887000Y-102564116D01*
X153882525Y-102548877D01*
X153881135Y-102547672D01*
X153873452Y-102546001D01*
X153346331Y-102546001D01*
X153339510Y-102546371D01*
X153288648Y-102551895D01*
X153273396Y-102555521D01*
X153152946Y-102600676D01*
X153137351Y-102609214D01*
X153035276Y-102685715D01*
X153022715Y-102698276D01*
X152946214Y-102800351D01*
X152937676Y-102815946D01*
X152892522Y-102936394D01*
X152888895Y-102951649D01*
X152883369Y-103002514D01*
X152883000Y-103009328D01*
X152883000Y-103231885D01*
X117119500Y-103231885D01*
X117119500Y-102878866D01*
X117112745Y-102816684D01*
X117061615Y-102680295D01*
X116974261Y-102563739D01*
X116857705Y-102476385D01*
X116721316Y-102425255D01*
X116659134Y-102418500D01*
X115062866Y-102418500D01*
X115000684Y-102425255D01*
X114864295Y-102476385D01*
X114747739Y-102563739D01*
X114660385Y-102680295D01*
X114609255Y-102816684D01*
X114602500Y-102878866D01*
X114602500Y-103875134D01*
X112218813Y-103875134D01*
X112219000Y-103871672D01*
X112219000Y-103649115D01*
X112214525Y-103633876D01*
X112213135Y-103632671D01*
X112205452Y-103631000D01*
X111233115Y-103631000D01*
X111217876Y-103635475D01*
X111216671Y-103636865D01*
X111215000Y-103644548D01*
X111215000Y-104316884D01*
X110707000Y-104316884D01*
X110707000Y-103104885D01*
X111215000Y-103104885D01*
X111219475Y-103120124D01*
X111220865Y-103121329D01*
X111228548Y-103123000D01*
X112200884Y-103123000D01*
X112216123Y-103118525D01*
X112217328Y-103117135D01*
X112218999Y-103109452D01*
X112218999Y-102882331D01*
X112218629Y-102875510D01*
X112213105Y-102824648D01*
X112209479Y-102809396D01*
X112164324Y-102688946D01*
X112155786Y-102673351D01*
X112079285Y-102571276D01*
X112066724Y-102558715D01*
X111964649Y-102482214D01*
X111949054Y-102473676D01*
X111828606Y-102428522D01*
X111813351Y-102424895D01*
X111762486Y-102419369D01*
X111755672Y-102419000D01*
X111233115Y-102419000D01*
X111217876Y-102423475D01*
X111216671Y-102424865D01*
X111215000Y-102432548D01*
X111215000Y-103104885D01*
X110707000Y-103104885D01*
X110707000Y-102437116D01*
X110702525Y-102421877D01*
X110701135Y-102420672D01*
X110693452Y-102419001D01*
X110166331Y-102419001D01*
X110159510Y-102419371D01*
X110108648Y-102424895D01*
X110093396Y-102428521D01*
X110025730Y-102453888D01*
X109954923Y-102459071D01*
X109892554Y-102425150D01*
X109858424Y-102362895D01*
X109855500Y-102335906D01*
X109855500Y-101118628D01*
X109875502Y-101050507D01*
X109929158Y-101004014D01*
X109999432Y-100993910D01*
X110025729Y-101000646D01*
X110093282Y-101025971D01*
X110093288Y-101025973D01*
X110100684Y-101028745D01*
X110162866Y-101035500D01*
X111759134Y-101035500D01*
X111821316Y-101028745D01*
X111957705Y-100977615D01*
X112074261Y-100890261D01*
X112161615Y-100773705D01*
X112212745Y-100637316D01*
X112219500Y-100575134D01*
X112219500Y-99578866D01*
X112212745Y-99516684D01*
X112161615Y-99380295D01*
X112074261Y-99263739D01*
X111957705Y-99176385D01*
X111821316Y-99125255D01*
X111759134Y-99118500D01*
X110162866Y-99118500D01*
X110100684Y-99125255D01*
X109964295Y-99176385D01*
X109847739Y-99263739D01*
X109842358Y-99270919D01*
X109836008Y-99277269D01*
X109833359Y-99274620D01*
X109790711Y-99306552D01*
X109746669Y-99314500D01*
X109413376Y-99314500D01*
X109394426Y-99313067D01*
X109380027Y-99310876D01*
X109380021Y-99310876D01*
X109372792Y-99309776D01*
X109365500Y-99310369D01*
X109365497Y-99310369D01*
X109319817Y-99314085D01*
X109309602Y-99314500D01*
X109301475Y-99314500D01*
X109297839Y-99314924D01*
X109297837Y-99314924D01*
X109294385Y-99315327D01*
X109273076Y-99317811D01*
X109268756Y-99318238D01*
X109195574Y-99324191D01*
X109188612Y-99326447D01*
X109182624Y-99327643D01*
X109176667Y-99329051D01*
X109169393Y-99329899D01*
X109162511Y-99332397D01*
X109162507Y-99332398D01*
X109100393Y-99354945D01*
X109096289Y-99356355D01*
X109026425Y-99378987D01*
X109020162Y-99382787D01*
X109014620Y-99385325D01*
X109009143Y-99388067D01*
X109002259Y-99390566D01*
X108996138Y-99394579D01*
X108996130Y-99394583D01*
X108971084Y-99411004D01*
X108903149Y-99431627D01*
X108834849Y-99412247D01*
X108787868Y-99359017D01*
X108776000Y-99305632D01*
X108776000Y-98580042D01*
X112145937Y-98580042D01*
X112147688Y-98589626D01*
X112189357Y-98733051D01*
X112195604Y-98747487D01*
X112270876Y-98874766D01*
X112280516Y-98887193D01*
X112385074Y-98991751D01*
X112397501Y-99001391D01*
X112524780Y-99076663D01*
X112539216Y-99082910D01*
X112659605Y-99117886D01*
X112673705Y-99117846D01*
X112677000Y-99110576D01*
X112677000Y-98583382D01*
X112672525Y-98568143D01*
X112671135Y-98566938D01*
X112663452Y-98565267D01*
X112162576Y-98565267D01*
X112147781Y-98569611D01*
X112145937Y-98580042D01*
X108776000Y-98580042D01*
X108776000Y-98546751D01*
X113102500Y-98546751D01*
X113102693Y-98549199D01*
X113102693Y-98549207D01*
X113104184Y-98568143D01*
X113105394Y-98583521D01*
X113107189Y-98589698D01*
X113142291Y-98710521D01*
X113151106Y-98740864D01*
X113155141Y-98747686D01*
X113155141Y-98747687D01*
X113167454Y-98768507D01*
X113185000Y-98832646D01*
X113185000Y-99104825D01*
X113188973Y-99118356D01*
X113196871Y-99119491D01*
X113322784Y-99082910D01*
X113337222Y-99076662D01*
X113346372Y-99071251D01*
X113415188Y-99053793D01*
X113474647Y-99071252D01*
X113482531Y-99075914D01*
X113491403Y-99081161D01*
X113499014Y-99083372D01*
X113499016Y-99083373D01*
X113528949Y-99092069D01*
X113648746Y-99126873D01*
X113655151Y-99127377D01*
X113655156Y-99127378D01*
X113683060Y-99129574D01*
X113683068Y-99129574D01*
X113685516Y-99129767D01*
X114096484Y-99129767D01*
X114098932Y-99129574D01*
X114098940Y-99129574D01*
X114126844Y-99127378D01*
X114126849Y-99127377D01*
X114133254Y-99126873D01*
X114253051Y-99092069D01*
X114282984Y-99083373D01*
X114282986Y-99083372D01*
X114290597Y-99081161D01*
X114298205Y-99076662D01*
X114424808Y-99001789D01*
X114431629Y-98997755D01*
X114472712Y-98956672D01*
X114535024Y-98922646D01*
X114561807Y-98919767D01*
X114657880Y-98919767D01*
X114726001Y-98939769D01*
X114746975Y-98956672D01*
X114820060Y-99029757D01*
X114854086Y-99092069D01*
X114849021Y-99162884D01*
X114806533Y-99219676D01*
X114747739Y-99263739D01*
X114660385Y-99380295D01*
X114609255Y-99516684D01*
X114602500Y-99578866D01*
X114602500Y-100575134D01*
X114609255Y-100637316D01*
X114660385Y-100773705D01*
X114747739Y-100890261D01*
X114864295Y-100977615D01*
X115000684Y-101028745D01*
X115062866Y-101035500D01*
X116659134Y-101035500D01*
X116721316Y-101028745D01*
X116857705Y-100977615D01*
X116974261Y-100890261D01*
X117022845Y-100825435D01*
X117079704Y-100782920D01*
X117123671Y-100775000D01*
X118120519Y-100775000D01*
X118188640Y-100795002D01*
X118194580Y-100799064D01*
X118230877Y-100825435D01*
X118288248Y-100867118D01*
X118294276Y-100869802D01*
X118294278Y-100869803D01*
X118456681Y-100942109D01*
X118462712Y-100944794D01*
X118556112Y-100964647D01*
X118643056Y-100983128D01*
X118643061Y-100983128D01*
X118649513Y-100984500D01*
X118840487Y-100984500D01*
X118846939Y-100983128D01*
X118846944Y-100983128D01*
X118933888Y-100964647D01*
X119027288Y-100944794D01*
X119033319Y-100942109D01*
X119195722Y-100869803D01*
X119195724Y-100869802D01*
X119201752Y-100867118D01*
X119356253Y-100754866D01*
X119374837Y-100734226D01*
X119479621Y-100617852D01*
X119479622Y-100617851D01*
X119484040Y-100612944D01*
X119579527Y-100447556D01*
X119638542Y-100265928D01*
X119645028Y-100204217D01*
X119645529Y-100203000D01*
X149962496Y-100203000D01*
X149982458Y-100392928D01*
X150041473Y-100574556D01*
X150136960Y-100739944D01*
X150141378Y-100744851D01*
X150141379Y-100744852D01*
X150173829Y-100780891D01*
X150264747Y-100881866D01*
X150319989Y-100922002D01*
X150404122Y-100983128D01*
X150419248Y-100994118D01*
X150425276Y-100996802D01*
X150425278Y-100996803D01*
X150545900Y-101050507D01*
X150593712Y-101071794D01*
X150687113Y-101091647D01*
X150774056Y-101110128D01*
X150774061Y-101110128D01*
X150780513Y-101111500D01*
X150971487Y-101111500D01*
X150977939Y-101110128D01*
X150977944Y-101110128D01*
X151064888Y-101091647D01*
X151158288Y-101071794D01*
X151206100Y-101050507D01*
X151326722Y-100996803D01*
X151326724Y-100996802D01*
X151332752Y-100994118D01*
X151347879Y-100983128D01*
X151426420Y-100926064D01*
X151493288Y-100902206D01*
X151500481Y-100902000D01*
X152878329Y-100902000D01*
X152946450Y-100922002D01*
X152979154Y-100952434D01*
X153027739Y-101017261D01*
X153144295Y-101104615D01*
X153280684Y-101155745D01*
X153342866Y-101162500D01*
X154939134Y-101162500D01*
X155001316Y-101155745D01*
X155137705Y-101104615D01*
X155254261Y-101017261D01*
X155341615Y-100900705D01*
X155392745Y-100764316D01*
X155399500Y-100702134D01*
X155399500Y-99705866D01*
X155392745Y-99643684D01*
X155341615Y-99507295D01*
X155254261Y-99390739D01*
X155137705Y-99303385D01*
X155001316Y-99252255D01*
X154939134Y-99245500D01*
X153342866Y-99245500D01*
X153280684Y-99252255D01*
X153144295Y-99303385D01*
X153027739Y-99390739D01*
X152980652Y-99453567D01*
X152923793Y-99496080D01*
X152879827Y-99504000D01*
X151500481Y-99504000D01*
X151432360Y-99483998D01*
X151426420Y-99479936D01*
X151338094Y-99415763D01*
X151338093Y-99415762D01*
X151332752Y-99411882D01*
X151326724Y-99409198D01*
X151326722Y-99409197D01*
X151164319Y-99336891D01*
X151164318Y-99336891D01*
X151158288Y-99334206D01*
X151063627Y-99314085D01*
X150977944Y-99295872D01*
X150977939Y-99295872D01*
X150971487Y-99294500D01*
X150780513Y-99294500D01*
X150774061Y-99295872D01*
X150774056Y-99295872D01*
X150688373Y-99314085D01*
X150593712Y-99334206D01*
X150587682Y-99336891D01*
X150587681Y-99336891D01*
X150425278Y-99409197D01*
X150425276Y-99409198D01*
X150419248Y-99411882D01*
X150264747Y-99524134D01*
X150136960Y-99666056D01*
X150041473Y-99831444D01*
X149982458Y-100013072D01*
X149962496Y-100203000D01*
X119645529Y-100203000D01*
X119672041Y-100138560D01*
X119681243Y-100128292D01*
X121102493Y-98707042D01*
X155325937Y-98707042D01*
X155327688Y-98716626D01*
X155369357Y-98860051D01*
X155375604Y-98874487D01*
X155450876Y-99001766D01*
X155460516Y-99014193D01*
X155565074Y-99118751D01*
X155577501Y-99128391D01*
X155704780Y-99203663D01*
X155719216Y-99209910D01*
X155839605Y-99244886D01*
X155853705Y-99244846D01*
X155857000Y-99237576D01*
X155857000Y-98710382D01*
X155852525Y-98695143D01*
X155851135Y-98693938D01*
X155843452Y-98692267D01*
X155342576Y-98692267D01*
X155327781Y-98696611D01*
X155325937Y-98707042D01*
X121102493Y-98707042D01*
X124680038Y-95129497D01*
X124686304Y-95123643D01*
X124723549Y-95091152D01*
X124729274Y-95086158D01*
X124765502Y-95034610D01*
X124769435Y-95029316D01*
X124808291Y-94979761D01*
X124811417Y-94972837D01*
X124813264Y-94969788D01*
X124820489Y-94957122D01*
X124822186Y-94953957D01*
X124826556Y-94947739D01*
X124849456Y-94889004D01*
X124851983Y-94882991D01*
X124877912Y-94825565D01*
X124879296Y-94818097D01*
X124880364Y-94814689D01*
X124884366Y-94800642D01*
X124885253Y-94797187D01*
X124888012Y-94790111D01*
X124896235Y-94727647D01*
X124897266Y-94721139D01*
X124907360Y-94666678D01*
X124908744Y-94659213D01*
X124905209Y-94597905D01*
X124905000Y-94590653D01*
X124905000Y-93435983D01*
X124925002Y-93367862D01*
X124957831Y-93333405D01*
X125146014Y-93199175D01*
X125213088Y-93175901D01*
X125282096Y-93192584D01*
X125331130Y-93243927D01*
X125337164Y-93257522D01*
X125340174Y-93265550D01*
X125348714Y-93281149D01*
X125425215Y-93383224D01*
X125437776Y-93395785D01*
X125539851Y-93472286D01*
X125555446Y-93480824D01*
X125675894Y-93525978D01*
X125691149Y-93529605D01*
X125742014Y-93535131D01*
X125748828Y-93535500D01*
X126473885Y-93535500D01*
X126489124Y-93531025D01*
X126490329Y-93529635D01*
X126492000Y-93521952D01*
X126492000Y-93517384D01*
X127000000Y-93517384D01*
X127004475Y-93532623D01*
X127005865Y-93533828D01*
X127013548Y-93535499D01*
X127743169Y-93535499D01*
X127749990Y-93535129D01*
X127800852Y-93529605D01*
X127816104Y-93525979D01*
X127936554Y-93480824D01*
X127952149Y-93472286D01*
X128054224Y-93395785D01*
X128066785Y-93383224D01*
X128143286Y-93281149D01*
X128151824Y-93265554D01*
X128196978Y-93145106D01*
X128200605Y-93129851D01*
X128206131Y-93078986D01*
X128206500Y-93072172D01*
X128206500Y-92347115D01*
X128202025Y-92331876D01*
X128200635Y-92330671D01*
X128192952Y-92329000D01*
X127018115Y-92329000D01*
X127002876Y-92333475D01*
X127001671Y-92334865D01*
X127000000Y-92342548D01*
X127000000Y-93517384D01*
X126492000Y-93517384D01*
X126492000Y-92039182D01*
X141917431Y-92039182D01*
X141931260Y-92279029D01*
X141932397Y-92284075D01*
X141932398Y-92284081D01*
X141946604Y-92347115D01*
X141984077Y-92513396D01*
X142074463Y-92735990D01*
X142199991Y-92940832D01*
X142357289Y-93122422D01*
X142542133Y-93275883D01*
X142546600Y-93278493D01*
X142621570Y-93322302D01*
X142670294Y-93373940D01*
X142684000Y-93431090D01*
X142684000Y-96525221D01*
X142663998Y-96593342D01*
X142651641Y-96609525D01*
X142643960Y-96618056D01*
X142548473Y-96783444D01*
X142489458Y-96965072D01*
X142469496Y-97155000D01*
X142489458Y-97344928D01*
X142548473Y-97526556D01*
X142551776Y-97532278D01*
X142551777Y-97532279D01*
X142562749Y-97551283D01*
X142643960Y-97691944D01*
X142648378Y-97696851D01*
X142648379Y-97696852D01*
X142667807Y-97718429D01*
X142771747Y-97833866D01*
X142828428Y-97875047D01*
X142882042Y-97914000D01*
X142926248Y-97946118D01*
X142932276Y-97948802D01*
X142932278Y-97948803D01*
X143081306Y-98015154D01*
X143100712Y-98023794D01*
X143181076Y-98040876D01*
X143281056Y-98062128D01*
X143281061Y-98062128D01*
X143287513Y-98063500D01*
X143478487Y-98063500D01*
X143484939Y-98062128D01*
X143484944Y-98062128D01*
X143584924Y-98040876D01*
X143665288Y-98023794D01*
X143684694Y-98015154D01*
X143833722Y-97948803D01*
X143833724Y-97948802D01*
X143839752Y-97946118D01*
X143880262Y-97916686D01*
X143933420Y-97878064D01*
X144000288Y-97854206D01*
X144007481Y-97854000D01*
X155248747Y-97854000D01*
X155316868Y-97874002D01*
X155363361Y-97927658D01*
X155373465Y-97997932D01*
X155369744Y-98015154D01*
X155327687Y-98159911D01*
X155326232Y-98167876D01*
X155329052Y-98181298D01*
X155340513Y-98184267D01*
X156156500Y-98184267D01*
X156224621Y-98204269D01*
X156271114Y-98257925D01*
X156282500Y-98310267D01*
X156282500Y-98673751D01*
X156282693Y-98676199D01*
X156284184Y-98695143D01*
X156285394Y-98710521D01*
X156331106Y-98867864D01*
X156335141Y-98874686D01*
X156335141Y-98874687D01*
X156347454Y-98895507D01*
X156365000Y-98959646D01*
X156365000Y-99231825D01*
X156368973Y-99245356D01*
X156376871Y-99246491D01*
X156502784Y-99209910D01*
X156517222Y-99203662D01*
X156526372Y-99198251D01*
X156595188Y-99180793D01*
X156654647Y-99198252D01*
X156662531Y-99202914D01*
X156671403Y-99208161D01*
X156679014Y-99210372D01*
X156679016Y-99210373D01*
X156711114Y-99219698D01*
X156828746Y-99253873D01*
X156835151Y-99254377D01*
X156835156Y-99254378D01*
X156863060Y-99256574D01*
X156863068Y-99256574D01*
X156865516Y-99256767D01*
X157276484Y-99256767D01*
X157278932Y-99256574D01*
X157278940Y-99256574D01*
X157306844Y-99254378D01*
X157306849Y-99254377D01*
X157313254Y-99253873D01*
X157430886Y-99219698D01*
X157462984Y-99210373D01*
X157462986Y-99210372D01*
X157470597Y-99208161D01*
X157560805Y-99154812D01*
X157624941Y-99137267D01*
X157887728Y-99137267D01*
X157955849Y-99157269D01*
X158002342Y-99210925D01*
X158012446Y-99281199D01*
X157982952Y-99345779D01*
X157963300Y-99364087D01*
X157927739Y-99390739D01*
X157840385Y-99507295D01*
X157789255Y-99643684D01*
X157782500Y-99705866D01*
X157782500Y-100702134D01*
X157789255Y-100764316D01*
X157840385Y-100900705D01*
X157927739Y-101017261D01*
X158044295Y-101104615D01*
X158180684Y-101155745D01*
X158242866Y-101162500D01*
X159839134Y-101162500D01*
X159901316Y-101155745D01*
X160037705Y-101104615D01*
X160154261Y-101017261D01*
X160241615Y-100900705D01*
X160292745Y-100764316D01*
X160299500Y-100702134D01*
X160299500Y-99705866D01*
X160292745Y-99643684D01*
X160241615Y-99507295D01*
X160154261Y-99390739D01*
X160037705Y-99303385D01*
X159901316Y-99252255D01*
X159867848Y-99248619D01*
X159852392Y-99246940D01*
X159786830Y-99219698D01*
X159746404Y-99161335D01*
X159740000Y-99121677D01*
X159740000Y-98857737D01*
X159740292Y-98849167D01*
X159743653Y-98799872D01*
X159743653Y-98799868D01*
X159744169Y-98792296D01*
X159733337Y-98730233D01*
X159732375Y-98723712D01*
X159725722Y-98668730D01*
X159725721Y-98668727D01*
X159724809Y-98661188D01*
X159722123Y-98654079D01*
X159721277Y-98650636D01*
X159717414Y-98636511D01*
X159716386Y-98633106D01*
X159715081Y-98625630D01*
X159689765Y-98567958D01*
X159687277Y-98561863D01*
X159667690Y-98510028D01*
X159667689Y-98510026D01*
X159665006Y-98502926D01*
X159660709Y-98496674D01*
X159659066Y-98493531D01*
X159651971Y-98480783D01*
X159650130Y-98477671D01*
X159647077Y-98470715D01*
X159608732Y-98420741D01*
X159604861Y-98415414D01*
X159573481Y-98369755D01*
X159573480Y-98369753D01*
X159569179Y-98363496D01*
X159523330Y-98322646D01*
X159518054Y-98317666D01*
X159117073Y-97916686D01*
X159114387Y-97914000D01*
X159014879Y-97835975D01*
X159007956Y-97832849D01*
X158991877Y-97825589D01*
X158954632Y-97799847D01*
X157835747Y-96680962D01*
X157829893Y-96674696D01*
X157797402Y-96637451D01*
X157792408Y-96631726D01*
X157740872Y-96595506D01*
X157735576Y-96591573D01*
X157691987Y-96557394D01*
X157691984Y-96557392D01*
X157686010Y-96552708D01*
X157679086Y-96549582D01*
X157676051Y-96547744D01*
X157663352Y-96540500D01*
X157660204Y-96538812D01*
X157653989Y-96534444D01*
X157595300Y-96511562D01*
X157589255Y-96509022D01*
X157531815Y-96483087D01*
X157524342Y-96481702D01*
X157520924Y-96480631D01*
X157506935Y-96476646D01*
X157503443Y-96475749D01*
X157496361Y-96472988D01*
X157488828Y-96471996D01*
X157488827Y-96471996D01*
X157433920Y-96464767D01*
X157427407Y-96463735D01*
X157372932Y-96453639D01*
X157372930Y-96453639D01*
X157365463Y-96452255D01*
X157357883Y-96452692D01*
X157357882Y-96452692D01*
X157304138Y-96455791D01*
X157296885Y-96456000D01*
X144208000Y-96456000D01*
X144139879Y-96435998D01*
X144093386Y-96382342D01*
X144082000Y-96330000D01*
X144082000Y-93435983D01*
X144102002Y-93367862D01*
X144134831Y-93333405D01*
X144323014Y-93199175D01*
X144390088Y-93175901D01*
X144459096Y-93192584D01*
X144508130Y-93243927D01*
X144514164Y-93257522D01*
X144517174Y-93265550D01*
X144525714Y-93281149D01*
X144602215Y-93383224D01*
X144614776Y-93395785D01*
X144716851Y-93472286D01*
X144732446Y-93480824D01*
X144852894Y-93525978D01*
X144868149Y-93529605D01*
X144919014Y-93535131D01*
X144925828Y-93535500D01*
X145650885Y-93535500D01*
X145666124Y-93531025D01*
X145667329Y-93529635D01*
X145669000Y-93521952D01*
X145669000Y-93517384D01*
X146177000Y-93517384D01*
X146181475Y-93532623D01*
X146182865Y-93533828D01*
X146190548Y-93535499D01*
X146920169Y-93535499D01*
X146926990Y-93535129D01*
X146977852Y-93529605D01*
X146993104Y-93525979D01*
X147113554Y-93480824D01*
X147129149Y-93472286D01*
X147231224Y-93395785D01*
X147243785Y-93383224D01*
X147320286Y-93281149D01*
X147328824Y-93265554D01*
X147373978Y-93145106D01*
X147377605Y-93129851D01*
X147383131Y-93078986D01*
X147383500Y-93072172D01*
X147383500Y-92347115D01*
X147379025Y-92331876D01*
X147377635Y-92330671D01*
X147369952Y-92329000D01*
X146195115Y-92329000D01*
X146179876Y-92333475D01*
X146178671Y-92334865D01*
X146177000Y-92342548D01*
X146177000Y-93517384D01*
X145669000Y-93517384D01*
X145669000Y-91802885D01*
X146177000Y-91802885D01*
X146181475Y-91818124D01*
X146182865Y-91819329D01*
X146190548Y-91821000D01*
X147365384Y-91821000D01*
X147380623Y-91816525D01*
X147381828Y-91815135D01*
X147383499Y-91807452D01*
X147383499Y-91077831D01*
X147383129Y-91071010D01*
X147377605Y-91020148D01*
X147373979Y-91004896D01*
X147328824Y-90884446D01*
X147320286Y-90868851D01*
X147243785Y-90766776D01*
X147231224Y-90754215D01*
X147129149Y-90677714D01*
X147113554Y-90669176D01*
X146993106Y-90624022D01*
X146977851Y-90620395D01*
X146926986Y-90614869D01*
X146920172Y-90614500D01*
X146195115Y-90614500D01*
X146179876Y-90618975D01*
X146178671Y-90620365D01*
X146177000Y-90628048D01*
X146177000Y-91802885D01*
X145669000Y-91802885D01*
X145669000Y-90632616D01*
X145664525Y-90617377D01*
X145663135Y-90616172D01*
X145655452Y-90614501D01*
X144925831Y-90614501D01*
X144919010Y-90614871D01*
X144868148Y-90620395D01*
X144852896Y-90624021D01*
X144732446Y-90669176D01*
X144716851Y-90677714D01*
X144614776Y-90754215D01*
X144602215Y-90766776D01*
X144525714Y-90868851D01*
X144517176Y-90884445D01*
X144512840Y-90896013D01*
X144470199Y-90952779D01*
X144403638Y-90977480D01*
X144334289Y-90962274D01*
X144316765Y-90950668D01*
X144305086Y-90941444D01*
X144232914Y-90884446D01*
X144198330Y-90857133D01*
X144198325Y-90857130D01*
X144194276Y-90853932D01*
X144189760Y-90851439D01*
X144189757Y-90851437D01*
X143988474Y-90740323D01*
X143988470Y-90740321D01*
X143983950Y-90737826D01*
X143979081Y-90736102D01*
X143979077Y-90736100D01*
X143762360Y-90659356D01*
X143762356Y-90659355D01*
X143757485Y-90657630D01*
X143752392Y-90656723D01*
X143752389Y-90656722D01*
X143526052Y-90616405D01*
X143526046Y-90616404D01*
X143520963Y-90615499D01*
X143433600Y-90614432D01*
X143285907Y-90612627D01*
X143285905Y-90612627D01*
X143280737Y-90612564D01*
X143043256Y-90648904D01*
X142955111Y-90677714D01*
X142819817Y-90721934D01*
X142819811Y-90721937D01*
X142814899Y-90723542D01*
X142810313Y-90725929D01*
X142810309Y-90725931D01*
X142723449Y-90771148D01*
X142601800Y-90834475D01*
X142597657Y-90837585D01*
X142597658Y-90837585D01*
X142447046Y-90950668D01*
X142409680Y-90978723D01*
X142243699Y-91152412D01*
X142108314Y-91350878D01*
X142106140Y-91355561D01*
X142106138Y-91355565D01*
X142040781Y-91496365D01*
X142007163Y-91568790D01*
X141942960Y-91800298D01*
X141917431Y-92039182D01*
X126492000Y-92039182D01*
X126492000Y-91802885D01*
X127000000Y-91802885D01*
X127004475Y-91818124D01*
X127005865Y-91819329D01*
X127013548Y-91821000D01*
X128188384Y-91821000D01*
X128203623Y-91816525D01*
X128204828Y-91815135D01*
X128206499Y-91807452D01*
X128206499Y-91077831D01*
X128206129Y-91071010D01*
X128200605Y-91020148D01*
X128196979Y-91004896D01*
X128151824Y-90884446D01*
X128143286Y-90868851D01*
X128066785Y-90766776D01*
X128054224Y-90754215D01*
X127952149Y-90677714D01*
X127936554Y-90669176D01*
X127816106Y-90624022D01*
X127800851Y-90620395D01*
X127749986Y-90614869D01*
X127743172Y-90614500D01*
X127018115Y-90614500D01*
X127002876Y-90618975D01*
X127001671Y-90620365D01*
X127000000Y-90628048D01*
X127000000Y-91802885D01*
X126492000Y-91802885D01*
X126492000Y-90632616D01*
X126487525Y-90617377D01*
X126486135Y-90616172D01*
X126478452Y-90614501D01*
X125748831Y-90614501D01*
X125742010Y-90614871D01*
X125691148Y-90620395D01*
X125675896Y-90624021D01*
X125555446Y-90669176D01*
X125539851Y-90677714D01*
X125437776Y-90754215D01*
X125425215Y-90766776D01*
X125348714Y-90868851D01*
X125340176Y-90884445D01*
X125335840Y-90896013D01*
X125293199Y-90952779D01*
X125226638Y-90977480D01*
X125157289Y-90962274D01*
X125139765Y-90950668D01*
X125128086Y-90941444D01*
X125055914Y-90884446D01*
X125021330Y-90857133D01*
X125021325Y-90857130D01*
X125017276Y-90853932D01*
X125012760Y-90851439D01*
X125012757Y-90851437D01*
X124811474Y-90740323D01*
X124811470Y-90740321D01*
X124806950Y-90737826D01*
X124802081Y-90736102D01*
X124802077Y-90736100D01*
X124585360Y-90659356D01*
X124585356Y-90659355D01*
X124580485Y-90657630D01*
X124575392Y-90656723D01*
X124575389Y-90656722D01*
X124349052Y-90616405D01*
X124349046Y-90616404D01*
X124343963Y-90615499D01*
X124256600Y-90614432D01*
X124108907Y-90612627D01*
X124108905Y-90612627D01*
X124103737Y-90612564D01*
X123866256Y-90648904D01*
X123778111Y-90677714D01*
X123642817Y-90721934D01*
X123642811Y-90721937D01*
X123637899Y-90723542D01*
X123633313Y-90725929D01*
X123633309Y-90725931D01*
X123546449Y-90771148D01*
X123424800Y-90834475D01*
X123420657Y-90837585D01*
X123420658Y-90837585D01*
X123270046Y-90950668D01*
X123232680Y-90978723D01*
X123066699Y-91152412D01*
X122931314Y-91350878D01*
X122929140Y-91355561D01*
X122929138Y-91355565D01*
X122863781Y-91496365D01*
X122830163Y-91568790D01*
X122765960Y-91800298D01*
X122740431Y-92039182D01*
X122754260Y-92279029D01*
X122755397Y-92284075D01*
X122755398Y-92284081D01*
X122769604Y-92347115D01*
X122807077Y-92513396D01*
X122897463Y-92735990D01*
X123022991Y-92940832D01*
X123180289Y-93122422D01*
X123365133Y-93275883D01*
X123369600Y-93278493D01*
X123444570Y-93322302D01*
X123493294Y-93373940D01*
X123507000Y-93431090D01*
X123507000Y-94273274D01*
X123486998Y-94341395D01*
X123470095Y-94362369D01*
X118695528Y-99136937D01*
X118632631Y-99171088D01*
X118462712Y-99207206D01*
X118456682Y-99209891D01*
X118456681Y-99209891D01*
X118294278Y-99282197D01*
X118294276Y-99282198D01*
X118288248Y-99284882D01*
X118282907Y-99288762D01*
X118282906Y-99288763D01*
X118194580Y-99352936D01*
X118127712Y-99376794D01*
X118120519Y-99377000D01*
X117122173Y-99377000D01*
X117054052Y-99356998D01*
X117021349Y-99326568D01*
X116974261Y-99263739D01*
X116857705Y-99176385D01*
X116721316Y-99125255D01*
X116659134Y-99118500D01*
X116565865Y-99118500D01*
X116497744Y-99098498D01*
X116449456Y-99040718D01*
X116433331Y-99001789D01*
X116392524Y-98903272D01*
X116319478Y-98808077D01*
X116319474Y-98808073D01*
X116301630Y-98784818D01*
X116300016Y-98782714D01*
X116300013Y-98782711D01*
X116294987Y-98776161D01*
X116288432Y-98771131D01*
X116269621Y-98756696D01*
X116257230Y-98745829D01*
X115426434Y-97915033D01*
X115415567Y-97902642D01*
X115401132Y-97883830D01*
X115396106Y-97877280D01*
X115364194Y-97852793D01*
X115364191Y-97852790D01*
X115344589Y-97837749D01*
X115275548Y-97784771D01*
X115275546Y-97784770D01*
X115268995Y-97779743D01*
X115120970Y-97718429D01*
X115112783Y-97717351D01*
X115112782Y-97717351D01*
X115101577Y-97715876D01*
X115070381Y-97711769D01*
X115002004Y-97702767D01*
X115002001Y-97702767D01*
X115001993Y-97702766D01*
X114970308Y-97698595D01*
X114962119Y-97697517D01*
X114930426Y-97701689D01*
X114913983Y-97702767D01*
X114561807Y-97702767D01*
X114493686Y-97682765D01*
X114472712Y-97665862D01*
X114431629Y-97624779D01*
X114307352Y-97551282D01*
X114297420Y-97545408D01*
X114297419Y-97545408D01*
X114290597Y-97541373D01*
X114282986Y-97539162D01*
X114282984Y-97539161D01*
X114209144Y-97517709D01*
X114133254Y-97495661D01*
X114126849Y-97495157D01*
X114126844Y-97495156D01*
X114098940Y-97492960D01*
X114098932Y-97492960D01*
X114096484Y-97492767D01*
X113685516Y-97492767D01*
X113683068Y-97492960D01*
X113683060Y-97492960D01*
X113655156Y-97495156D01*
X113655151Y-97495157D01*
X113648746Y-97495661D01*
X113572856Y-97517709D01*
X113499016Y-97539161D01*
X113499014Y-97539162D01*
X113491403Y-97541373D01*
X113484576Y-97545410D01*
X113484577Y-97545410D01*
X113474647Y-97551282D01*
X113405830Y-97568741D01*
X113346372Y-97551283D01*
X113337222Y-97545872D01*
X113322784Y-97539624D01*
X113202395Y-97504648D01*
X113188295Y-97504688D01*
X113185000Y-97511958D01*
X113185000Y-97789888D01*
X113167454Y-97854027D01*
X113151106Y-97881670D01*
X113105394Y-98039013D01*
X113104890Y-98045418D01*
X113104889Y-98045423D01*
X113102693Y-98073327D01*
X113102500Y-98075783D01*
X113102500Y-98546751D01*
X108776000Y-98546751D01*
X108776000Y-98040876D01*
X112146232Y-98040876D01*
X112149052Y-98054298D01*
X112160513Y-98057267D01*
X112658885Y-98057267D01*
X112674124Y-98052792D01*
X112675329Y-98051402D01*
X112677000Y-98043719D01*
X112677000Y-97517709D01*
X112673027Y-97504178D01*
X112665129Y-97503043D01*
X112539216Y-97539624D01*
X112524780Y-97545871D01*
X112397501Y-97621143D01*
X112385074Y-97630783D01*
X112280516Y-97735341D01*
X112270876Y-97747768D01*
X112195604Y-97875047D01*
X112189357Y-97889483D01*
X112147688Y-98032908D01*
X112146232Y-98040876D01*
X108776000Y-98040876D01*
X108776000Y-91728793D01*
X108785346Y-91684822D01*
X108784527Y-91684556D01*
X108841502Y-91509206D01*
X108843542Y-91502928D01*
X108863504Y-91313000D01*
X108843542Y-91123072D01*
X108784527Y-90941444D01*
X108689040Y-90776056D01*
X108653064Y-90736100D01*
X108565675Y-90639045D01*
X108565674Y-90639044D01*
X108561253Y-90634134D01*
X108406752Y-90521882D01*
X108400724Y-90519198D01*
X108400722Y-90519197D01*
X108238319Y-90446891D01*
X108238318Y-90446891D01*
X108232288Y-90444206D01*
X108138888Y-90424353D01*
X108051944Y-90405872D01*
X108051939Y-90405872D01*
X108045487Y-90404500D01*
X107854513Y-90404500D01*
X107848061Y-90405872D01*
X107848056Y-90405872D01*
X107761112Y-90424353D01*
X107667712Y-90444206D01*
X107661682Y-90446891D01*
X107661681Y-90446891D01*
X107499278Y-90519197D01*
X107499276Y-90519198D01*
X107493248Y-90521882D01*
X107338747Y-90634134D01*
X107334326Y-90639044D01*
X107334325Y-90639045D01*
X107246937Y-90736100D01*
X107210960Y-90776056D01*
X107115473Y-90941444D01*
X107056458Y-91123072D01*
X107036496Y-91313000D01*
X107056458Y-91502928D01*
X107058498Y-91509206D01*
X107115473Y-91684556D01*
X107114654Y-91684822D01*
X107124000Y-91728793D01*
X107124000Y-112227967D01*
X107123558Y-112238511D01*
X107119377Y-112288300D01*
X107120279Y-112295060D01*
X107129706Y-112365704D01*
X107130073Y-112368743D01*
X107138511Y-112446417D01*
X107140687Y-112452883D01*
X107141204Y-112455233D01*
X107141301Y-112455783D01*
X107141480Y-112456550D01*
X107141635Y-112457085D01*
X107142211Y-112459432D01*
X107143113Y-112466190D01*
X107145445Y-112472596D01*
X107169810Y-112539540D01*
X107170826Y-112542443D01*
X107193575Y-112610039D01*
X107193578Y-112610046D01*
X107195754Y-112616511D01*
X107199269Y-112622360D01*
X107200282Y-112624553D01*
X107200494Y-112625068D01*
X107200827Y-112625766D01*
X107201100Y-112626267D01*
X107202160Y-112628421D01*
X107204494Y-112634834D01*
X107246342Y-112700775D01*
X107247956Y-112703390D01*
X107288186Y-112770344D01*
X107292867Y-112775295D01*
X107294337Y-112777231D01*
X107294985Y-112778162D01*
X107297885Y-112781996D01*
X107300657Y-112786364D01*
X107304323Y-112790464D01*
X107356245Y-112842386D01*
X107358698Y-112844907D01*
X107411496Y-112900740D01*
X107417137Y-112904574D01*
X107421989Y-112908703D01*
X107429419Y-112915560D01*
X108607615Y-114093755D01*
X108614758Y-114101522D01*
X108647015Y-114139693D01*
X108652434Y-114143836D01*
X108652435Y-114143837D01*
X108709062Y-114187131D01*
X108711482Y-114189029D01*
X108772350Y-114237969D01*
X108778460Y-114241002D01*
X108780496Y-114242304D01*
X108780952Y-114242623D01*
X108781610Y-114243033D01*
X108782100Y-114243302D01*
X108784166Y-114244553D01*
X108789586Y-114248697D01*
X108860351Y-114281695D01*
X108863122Y-114283029D01*
X108933102Y-114317767D01*
X108939727Y-114319419D01*
X108941994Y-114320253D01*
X108942519Y-114320472D01*
X108943223Y-114320721D01*
X108943773Y-114320883D01*
X108946057Y-114321661D01*
X108952239Y-114324543D01*
X108958897Y-114326031D01*
X108958905Y-114326034D01*
X109028458Y-114341581D01*
X109031454Y-114342289D01*
X109100615Y-114359533D01*
X109100618Y-114359533D01*
X109107238Y-114361184D01*
X109114059Y-114361375D01*
X109116463Y-114361704D01*
X109117559Y-114361901D01*
X109122328Y-114362563D01*
X109127384Y-114363693D01*
X109132875Y-114364000D01*
X109206311Y-114364000D01*
X109209828Y-114364049D01*
X109279814Y-114366004D01*
X109279819Y-114366004D01*
X109286635Y-114366194D01*
X109293339Y-114364915D01*
X109299665Y-114364406D01*
X109309772Y-114364000D01*
X121514812Y-114364000D01*
X121566061Y-114374893D01*
X121637712Y-114406794D01*
X121729207Y-114426242D01*
X121818056Y-114445128D01*
X121818061Y-114445128D01*
X121824513Y-114446500D01*
X122015487Y-114446500D01*
X122021939Y-114445128D01*
X122021944Y-114445128D01*
X122110793Y-114426242D01*
X122202288Y-114406794D01*
X122239658Y-114390156D01*
X122370722Y-114331803D01*
X122370724Y-114331802D01*
X122376752Y-114329118D01*
X122388087Y-114320883D01*
X122483473Y-114251580D01*
X122531253Y-114216866D01*
X122557190Y-114188060D01*
X122654621Y-114079852D01*
X122654622Y-114079851D01*
X122659040Y-114074944D01*
X122754527Y-113909556D01*
X122813542Y-113727928D01*
X122833504Y-113538000D01*
X122813542Y-113348072D01*
X122754527Y-113166444D01*
X122659040Y-113001056D01*
X122531253Y-112859134D01*
X122376752Y-112746882D01*
X122370724Y-112744198D01*
X122370722Y-112744197D01*
X122208319Y-112671891D01*
X122208318Y-112671891D01*
X122202288Y-112669206D01*
X122108888Y-112649353D01*
X122021944Y-112630872D01*
X122021939Y-112630872D01*
X122015487Y-112629500D01*
X121824513Y-112629500D01*
X121818061Y-112630872D01*
X121818056Y-112630872D01*
X121731112Y-112649353D01*
X121637712Y-112669206D01*
X121631682Y-112671891D01*
X121631681Y-112671891D01*
X121566061Y-112701107D01*
X121514812Y-112712000D01*
X109614332Y-112712000D01*
X109546211Y-112691998D01*
X109525237Y-112675096D01*
X108812905Y-111962765D01*
X108778880Y-111900452D01*
X108776000Y-111873669D01*
X108776000Y-106983528D01*
X108796002Y-106915407D01*
X108849658Y-106868914D01*
X108919932Y-106858810D01*
X108984512Y-106888304D01*
X108991095Y-106894433D01*
X109014190Y-106917528D01*
X109026577Y-106931941D01*
X109039546Y-106949564D01*
X109045129Y-106954307D01*
X109080055Y-106983979D01*
X109087571Y-106990909D01*
X109093315Y-106996653D01*
X109096185Y-106998924D01*
X109096191Y-106998929D01*
X109115741Y-107014397D01*
X109119141Y-107017185D01*
X109175051Y-107064684D01*
X109181572Y-107068014D01*
X109186657Y-107071405D01*
X109191856Y-107074616D01*
X109197599Y-107079160D01*
X109204228Y-107082258D01*
X109204231Y-107082260D01*
X109264089Y-107110235D01*
X109268041Y-107112167D01*
X109333404Y-107145543D01*
X109340517Y-107147284D01*
X109346240Y-107149412D01*
X109352049Y-107151344D01*
X109358679Y-107154443D01*
X109365844Y-107155933D01*
X109365846Y-107155934D01*
X109430534Y-107169389D01*
X109434818Y-107170359D01*
X109506112Y-107187804D01*
X109511714Y-107188152D01*
X109511717Y-107188152D01*
X109517330Y-107188500D01*
X109517328Y-107188538D01*
X109521243Y-107188773D01*
X109525594Y-107189161D01*
X109532756Y-107190651D01*
X109610556Y-107188546D01*
X109613964Y-107188500D01*
X110214814Y-107188500D01*
X110244762Y-107192111D01*
X110281379Y-107201071D01*
X110286981Y-107201419D01*
X110286984Y-107201419D01*
X110292597Y-107201767D01*
X110292595Y-107201806D01*
X110296496Y-107202039D01*
X110300855Y-107202428D01*
X110308023Y-107203919D01*
X110315340Y-107203721D01*
X110385844Y-107201813D01*
X110389253Y-107201767D01*
X150490500Y-107201767D01*
X150558621Y-107221769D01*
X150605114Y-107275425D01*
X150616500Y-107327767D01*
X150616500Y-107758500D01*
X150596498Y-107826621D01*
X150542842Y-107873114D01*
X150490500Y-107884500D01*
X134117368Y-107884500D01*
X134098420Y-107883067D01*
X134091033Y-107881943D01*
X134084024Y-107880877D01*
X134084022Y-107880877D01*
X134076792Y-107879777D01*
X134069500Y-107880370D01*
X134069497Y-107880370D01*
X134023825Y-107884085D01*
X134013611Y-107884500D01*
X134005475Y-107884500D01*
X134001840Y-107884924D01*
X134001837Y-107884924D01*
X133983835Y-107887023D01*
X133977084Y-107887810D01*
X133972713Y-107888243D01*
X133961701Y-107889138D01*
X133906872Y-107893597D01*
X133906869Y-107893598D01*
X133899573Y-107894191D01*
X133892611Y-107896446D01*
X133886607Y-107897646D01*
X133880660Y-107899052D01*
X133873393Y-107899899D01*
X133804388Y-107924947D01*
X133800227Y-107926375D01*
X133737387Y-107946732D01*
X133737382Y-107946734D01*
X133730425Y-107948988D01*
X133724173Y-107952782D01*
X133718598Y-107955334D01*
X133713135Y-107958070D01*
X133706259Y-107960566D01*
X133700140Y-107964578D01*
X133644863Y-108000819D01*
X133641159Y-108003156D01*
X133578419Y-108041228D01*
X133569994Y-108048668D01*
X133569969Y-108048640D01*
X133567044Y-108051234D01*
X133563690Y-108054039D01*
X133557565Y-108058054D01*
X133552530Y-108063369D01*
X133552529Y-108063370D01*
X133504012Y-108114586D01*
X133501634Y-108117028D01*
X127805591Y-113813071D01*
X127791178Y-113825458D01*
X127773555Y-113838427D01*
X127768811Y-113844010D01*
X127768812Y-113844010D01*
X127739140Y-113878936D01*
X127732210Y-113886452D01*
X127726466Y-113892196D01*
X127724192Y-113895070D01*
X127724186Y-113895077D01*
X127708747Y-113914592D01*
X127705956Y-113917996D01*
X127663174Y-113968353D01*
X127663171Y-113968357D01*
X127658435Y-113973932D01*
X127655107Y-113980449D01*
X127651730Y-113985513D01*
X127648503Y-113990737D01*
X127643959Y-113996481D01*
X127640860Y-114003112D01*
X127612887Y-114062963D01*
X127610956Y-114066914D01*
X127606856Y-114074944D01*
X127577576Y-114132285D01*
X127575835Y-114139400D01*
X127573698Y-114145146D01*
X127571774Y-114150929D01*
X127568675Y-114157560D01*
X127567185Y-114164724D01*
X127553727Y-114229428D01*
X127552762Y-114233693D01*
X127535315Y-114304993D01*
X127534968Y-114310592D01*
X127534967Y-114310596D01*
X127534619Y-114316209D01*
X127534619Y-114316211D01*
X127534580Y-114316209D01*
X127534347Y-114320110D01*
X127533958Y-114324469D01*
X127532467Y-114331637D01*
X127532665Y-114338954D01*
X127534573Y-114409458D01*
X127534619Y-114412867D01*
X127534619Y-116677648D01*
X127514617Y-116745769D01*
X127460961Y-116792262D01*
X127396625Y-116802766D01*
X127393103Y-116802017D01*
X127202129Y-116802017D01*
X127195677Y-116803389D01*
X127195672Y-116803389D01*
X127108728Y-116821870D01*
X127015328Y-116841723D01*
X127009298Y-116844408D01*
X127009297Y-116844408D01*
X126943677Y-116873624D01*
X126892428Y-116884517D01*
X106049500Y-116884517D01*
X105981379Y-116864515D01*
X105934886Y-116810859D01*
X105923500Y-116758517D01*
X105923500Y-71759500D01*
X105943502Y-71691379D01*
X105997158Y-71644886D01*
X106049500Y-71633500D01*
X117439000Y-71633500D01*
X117507121Y-71653502D01*
X117553614Y-71707158D01*
X117565000Y-71759500D01*
X117565000Y-82570500D01*
X117544998Y-82638621D01*
X117491342Y-82685114D01*
X117439000Y-82696500D01*
X117067866Y-82696500D01*
X117005684Y-82703255D01*
X116869295Y-82754385D01*
X116752739Y-82841739D01*
X116665385Y-82958295D01*
X116614255Y-83094684D01*
X116607500Y-83156866D01*
X116607500Y-85753134D01*
X116614255Y-85815316D01*
X116665385Y-85951705D01*
X116752739Y-86068261D01*
X116869295Y-86155615D01*
X117005684Y-86206745D01*
X117067866Y-86213500D01*
X119035840Y-86213500D01*
X119103961Y-86233502D01*
X119150454Y-86287158D01*
X119160558Y-86357432D01*
X119148157Y-86396605D01*
X119109513Y-86472612D01*
X119039889Y-86696840D01*
X119039188Y-86702129D01*
X119022092Y-86831116D01*
X119009039Y-86929593D01*
X119017848Y-87164216D01*
X119018943Y-87169434D01*
X119043794Y-87287871D01*
X119066062Y-87394001D01*
X119152302Y-87612377D01*
X119274104Y-87813100D01*
X119427985Y-87990432D01*
X119432117Y-87993820D01*
X119605416Y-88135917D01*
X119605422Y-88135921D01*
X119609544Y-88139301D01*
X119614180Y-88141940D01*
X119614183Y-88141942D01*
X119725408Y-88205255D01*
X119813590Y-88255451D01*
X120034289Y-88335561D01*
X120039538Y-88336510D01*
X120039541Y-88336511D01*
X120120615Y-88351171D01*
X120265330Y-88377340D01*
X120269469Y-88377535D01*
X120269476Y-88377536D01*
X120288440Y-88378430D01*
X120288449Y-88378430D01*
X120289929Y-88378500D01*
X120454950Y-88378500D01*
X120536299Y-88371597D01*
X120624637Y-88364102D01*
X120624641Y-88364101D01*
X120629948Y-88363651D01*
X120635103Y-88362313D01*
X120635109Y-88362312D01*
X120852035Y-88306009D01*
X120852034Y-88306009D01*
X120857206Y-88304667D01*
X120862072Y-88302475D01*
X120862075Y-88302474D01*
X121066417Y-88210424D01*
X121066420Y-88210423D01*
X121071278Y-88208234D01*
X121266041Y-88077112D01*
X121435927Y-87915049D01*
X121576078Y-87726679D01*
X121636719Y-87607408D01*
X121680069Y-87522144D01*
X121680069Y-87522143D01*
X121682487Y-87517388D01*
X121752111Y-87293160D01*
X121769202Y-87164216D01*
X121782261Y-87065690D01*
X121782261Y-87065687D01*
X121782961Y-87060407D01*
X121774152Y-86825784D01*
X121761690Y-86766392D01*
X121728373Y-86607602D01*
X121733960Y-86536826D01*
X121776925Y-86480305D01*
X121842898Y-86456035D01*
X121876355Y-86453696D01*
X121941828Y-86449118D01*
X121941834Y-86449117D01*
X121946212Y-86448811D01*
X122220970Y-86390409D01*
X122225099Y-86388906D01*
X122225103Y-86388905D01*
X122480781Y-86295846D01*
X122480785Y-86295844D01*
X122484926Y-86294337D01*
X122732942Y-86162464D01*
X122917327Y-86028501D01*
X122984195Y-86004642D01*
X123053347Y-86020723D01*
X123102827Y-86071637D01*
X123116926Y-86141220D01*
X123108540Y-86176820D01*
X123091370Y-86220187D01*
X123013064Y-86525170D01*
X122973600Y-86837562D01*
X122973600Y-87152438D01*
X123013064Y-87464830D01*
X123091370Y-87769813D01*
X123207284Y-88062577D01*
X123209186Y-88066036D01*
X123209187Y-88066039D01*
X123341112Y-88306009D01*
X123358976Y-88338504D01*
X123544055Y-88593244D01*
X123759602Y-88822778D01*
X124002218Y-89023487D01*
X124268076Y-89192206D01*
X124271655Y-89193890D01*
X124271662Y-89193894D01*
X124549394Y-89324584D01*
X124549398Y-89324586D01*
X124552984Y-89326273D01*
X124852448Y-89423575D01*
X125161746Y-89482577D01*
X125255300Y-89488463D01*
X125395358Y-89497275D01*
X125395374Y-89497276D01*
X125397353Y-89497400D01*
X125554647Y-89497400D01*
X125556626Y-89497276D01*
X125556642Y-89497275D01*
X125696700Y-89488463D01*
X125790254Y-89482577D01*
X126099552Y-89423575D01*
X126399016Y-89326273D01*
X126402602Y-89324586D01*
X126402606Y-89324584D01*
X126680338Y-89193894D01*
X126680345Y-89193890D01*
X126683924Y-89192206D01*
X126949782Y-89023487D01*
X127192398Y-88822778D01*
X127407945Y-88593244D01*
X127593024Y-88338504D01*
X127610889Y-88306009D01*
X127742813Y-88066039D01*
X127742814Y-88066036D01*
X127744716Y-88062577D01*
X127860630Y-87769813D01*
X127938936Y-87464830D01*
X127978400Y-87152438D01*
X127978400Y-86929593D01*
X129169039Y-86929593D01*
X129177848Y-87164216D01*
X129178943Y-87169434D01*
X129203794Y-87287871D01*
X129226062Y-87394001D01*
X129312302Y-87612377D01*
X129434104Y-87813100D01*
X129587985Y-87990432D01*
X129592117Y-87993820D01*
X129765416Y-88135917D01*
X129765422Y-88135921D01*
X129769544Y-88139301D01*
X129774180Y-88141940D01*
X129774183Y-88141942D01*
X129885408Y-88205255D01*
X129973590Y-88255451D01*
X130194289Y-88335561D01*
X130199538Y-88336510D01*
X130199541Y-88336511D01*
X130280615Y-88351171D01*
X130425330Y-88377340D01*
X130429469Y-88377535D01*
X130429476Y-88377536D01*
X130448440Y-88378430D01*
X130448449Y-88378430D01*
X130449929Y-88378500D01*
X130614950Y-88378500D01*
X130696299Y-88371597D01*
X130784637Y-88364102D01*
X130784641Y-88364101D01*
X130789948Y-88363651D01*
X130795103Y-88362313D01*
X130795109Y-88362312D01*
X131012035Y-88306009D01*
X131012034Y-88306009D01*
X131017206Y-88304667D01*
X131022072Y-88302475D01*
X131022075Y-88302474D01*
X131226417Y-88210424D01*
X131226420Y-88210423D01*
X131231278Y-88208234D01*
X131426041Y-88077112D01*
X131595927Y-87915049D01*
X131736078Y-87726679D01*
X131796719Y-87607408D01*
X131840069Y-87522144D01*
X131840069Y-87522143D01*
X131842487Y-87517388D01*
X131912111Y-87293160D01*
X131929202Y-87164216D01*
X131942261Y-87065690D01*
X131942261Y-87065687D01*
X131942961Y-87060407D01*
X131934152Y-86825784D01*
X131916358Y-86740978D01*
X131887035Y-86601226D01*
X131887034Y-86601223D01*
X131885938Y-86595999D01*
X131799698Y-86377623D01*
X131701936Y-86216517D01*
X131680664Y-86181461D01*
X131680662Y-86181458D01*
X131677896Y-86176900D01*
X131524015Y-85999568D01*
X131455388Y-85943297D01*
X131346584Y-85854083D01*
X131346578Y-85854079D01*
X131342456Y-85850699D01*
X131337820Y-85848060D01*
X131337817Y-85848058D01*
X131143053Y-85737192D01*
X131138410Y-85734549D01*
X130917711Y-85654439D01*
X130912462Y-85653490D01*
X130912459Y-85653489D01*
X130831385Y-85638829D01*
X130686670Y-85612660D01*
X130682531Y-85612465D01*
X130682524Y-85612464D01*
X130663560Y-85611570D01*
X130663551Y-85611570D01*
X130662071Y-85611500D01*
X130497050Y-85611500D01*
X130415701Y-85618403D01*
X130327363Y-85625898D01*
X130327359Y-85625899D01*
X130322052Y-85626349D01*
X130316897Y-85627687D01*
X130316891Y-85627688D01*
X130139177Y-85673814D01*
X130094794Y-85685333D01*
X130089928Y-85687525D01*
X130089925Y-85687526D01*
X129885583Y-85779576D01*
X129885580Y-85779577D01*
X129880722Y-85781766D01*
X129685959Y-85912888D01*
X129516073Y-86074951D01*
X129375922Y-86263321D01*
X129373506Y-86268072D01*
X129373504Y-86268076D01*
X129312072Y-86388905D01*
X129269513Y-86472612D01*
X129199889Y-86696840D01*
X129199188Y-86702129D01*
X129182092Y-86831116D01*
X129169039Y-86929593D01*
X127978400Y-86929593D01*
X127978400Y-86837562D01*
X127938936Y-86525170D01*
X127860630Y-86220187D01*
X127744716Y-85927423D01*
X127738749Y-85916569D01*
X127594933Y-85654968D01*
X127594931Y-85654965D01*
X127593024Y-85651496D01*
X127407945Y-85396756D01*
X127192398Y-85167222D01*
X126949782Y-84966513D01*
X126683924Y-84797794D01*
X126680345Y-84796110D01*
X126680338Y-84796106D01*
X126402606Y-84665416D01*
X126402602Y-84665414D01*
X126399016Y-84663727D01*
X126099552Y-84566425D01*
X125790254Y-84507423D01*
X125696700Y-84501537D01*
X125556642Y-84492725D01*
X125556626Y-84492724D01*
X125554647Y-84492600D01*
X125397353Y-84492600D01*
X125395374Y-84492724D01*
X125395358Y-84492725D01*
X125255300Y-84501537D01*
X125161746Y-84507423D01*
X124852448Y-84566425D01*
X124552984Y-84663727D01*
X124549398Y-84665414D01*
X124549394Y-84665416D01*
X124271662Y-84796106D01*
X124271655Y-84796110D01*
X124268076Y-84797794D01*
X124002218Y-84966513D01*
X123922249Y-85032669D01*
X123801413Y-85132633D01*
X123736176Y-85160643D01*
X123666151Y-85148936D01*
X123613571Y-85101229D01*
X123595131Y-85032669D01*
X123598841Y-85005066D01*
X123647753Y-84808893D01*
X123647754Y-84808888D01*
X123648817Y-84804624D01*
X123649713Y-84796106D01*
X123677719Y-84529636D01*
X123677719Y-84529633D01*
X123678178Y-84525267D01*
X123677555Y-84507423D01*
X123668529Y-84248939D01*
X123668528Y-84248933D01*
X123668375Y-84244542D01*
X123619598Y-83967913D01*
X123532797Y-83700765D01*
X123529750Y-83694516D01*
X123475687Y-83583672D01*
X123409660Y-83448298D01*
X123407205Y-83444659D01*
X123407202Y-83444653D01*
X123334110Y-83336290D01*
X123252585Y-83215424D01*
X123064629Y-83006678D01*
X122849450Y-82826121D01*
X122611236Y-82677269D01*
X122354625Y-82563018D01*
X122084610Y-82485593D01*
X122080260Y-82484982D01*
X122080257Y-82484981D01*
X121977310Y-82470513D01*
X121806448Y-82446500D01*
X121595854Y-82446500D01*
X121593668Y-82446653D01*
X121593664Y-82446653D01*
X121390173Y-82460882D01*
X121390168Y-82460883D01*
X121385788Y-82461189D01*
X121111030Y-82519591D01*
X121106901Y-82521094D01*
X121106897Y-82521095D01*
X120851219Y-82614154D01*
X120851215Y-82614156D01*
X120847074Y-82615663D01*
X120599058Y-82747536D01*
X120595499Y-82750122D01*
X120595497Y-82750123D01*
X120459516Y-82848919D01*
X120371808Y-82912642D01*
X120368644Y-82915698D01*
X120368641Y-82915700D01*
X120306337Y-82975867D01*
X120243441Y-83008799D01*
X120172724Y-83002499D01*
X120116960Y-82959215D01*
X120116615Y-82958295D01*
X120029261Y-82841739D01*
X119912705Y-82754385D01*
X119776316Y-82703255D01*
X119714134Y-82696500D01*
X119343000Y-82696500D01*
X119274879Y-82676498D01*
X119228386Y-82622842D01*
X119217000Y-82570500D01*
X119217000Y-81844733D01*
X126003822Y-81844733D01*
X126013625Y-82125458D01*
X126014387Y-82129781D01*
X126014388Y-82129788D01*
X126038164Y-82264624D01*
X126062402Y-82402087D01*
X126149203Y-82669235D01*
X126151131Y-82673188D01*
X126151133Y-82673193D01*
X126206313Y-82786328D01*
X126272340Y-82921702D01*
X126274795Y-82925341D01*
X126274798Y-82925347D01*
X126326838Y-83002499D01*
X126429415Y-83154576D01*
X126432360Y-83157847D01*
X126432361Y-83157848D01*
X126479024Y-83209672D01*
X126617371Y-83363322D01*
X126832550Y-83543879D01*
X127070764Y-83692731D01*
X127327375Y-83806982D01*
X127597390Y-83884407D01*
X127601740Y-83885018D01*
X127601743Y-83885019D01*
X127704690Y-83899487D01*
X127875552Y-83923500D01*
X128086146Y-83923500D01*
X128088332Y-83923347D01*
X128088336Y-83923347D01*
X128291827Y-83909118D01*
X128291832Y-83909117D01*
X128296212Y-83908811D01*
X128570970Y-83850409D01*
X128575099Y-83848906D01*
X128575103Y-83848905D01*
X128830781Y-83755846D01*
X128830785Y-83755844D01*
X128834926Y-83754337D01*
X129082942Y-83622464D01*
X129086503Y-83619877D01*
X129306629Y-83459947D01*
X129306632Y-83459944D01*
X129310192Y-83457358D01*
X129315482Y-83452250D01*
X129393702Y-83376713D01*
X129456598Y-83343781D01*
X129527315Y-83350081D01*
X129583399Y-83393613D01*
X129591749Y-83406841D01*
X129598212Y-83418646D01*
X129674715Y-83520724D01*
X129687276Y-83533285D01*
X129789351Y-83609786D01*
X129804946Y-83618324D01*
X129925394Y-83663478D01*
X129940649Y-83667105D01*
X129991514Y-83672631D01*
X129998328Y-83673000D01*
X131045885Y-83673000D01*
X131061124Y-83668525D01*
X131062329Y-83667135D01*
X131064000Y-83659452D01*
X131064000Y-83654884D01*
X131572000Y-83654884D01*
X131576475Y-83670123D01*
X131577865Y-83671328D01*
X131585548Y-83672999D01*
X132637669Y-83672999D01*
X132644490Y-83672629D01*
X132695352Y-83667105D01*
X132710604Y-83663479D01*
X132831054Y-83618324D01*
X132846649Y-83609786D01*
X132948724Y-83533285D01*
X132961285Y-83520724D01*
X133037786Y-83418649D01*
X133046324Y-83403054D01*
X133091478Y-83282606D01*
X133095105Y-83267351D01*
X133100631Y-83216486D01*
X133101000Y-83209672D01*
X133101000Y-82187115D01*
X133096525Y-82171876D01*
X133095135Y-82170671D01*
X133087452Y-82169000D01*
X131590115Y-82169000D01*
X131574876Y-82173475D01*
X131573671Y-82174865D01*
X131572000Y-82182548D01*
X131572000Y-83654884D01*
X131064000Y-83654884D01*
X131064000Y-81642885D01*
X131572000Y-81642885D01*
X131576475Y-81658124D01*
X131577865Y-81659329D01*
X131585548Y-81661000D01*
X133082884Y-81661000D01*
X133098123Y-81656525D01*
X133099328Y-81655135D01*
X133100999Y-81647452D01*
X133100999Y-80620331D01*
X133100629Y-80613510D01*
X133095105Y-80562648D01*
X133091479Y-80547396D01*
X133046324Y-80426946D01*
X133037786Y-80411351D01*
X132961285Y-80309276D01*
X132948724Y-80296715D01*
X132846649Y-80220214D01*
X132831054Y-80211676D01*
X132710606Y-80166522D01*
X132695351Y-80162895D01*
X132644486Y-80157369D01*
X132637672Y-80157000D01*
X131590115Y-80157000D01*
X131574876Y-80161475D01*
X131573671Y-80162865D01*
X131572000Y-80170548D01*
X131572000Y-81642885D01*
X131064000Y-81642885D01*
X131064000Y-80175116D01*
X131059525Y-80159877D01*
X131058135Y-80158672D01*
X131050452Y-80157001D01*
X129998331Y-80157001D01*
X129991510Y-80157371D01*
X129940648Y-80162895D01*
X129925396Y-80166521D01*
X129804946Y-80211676D01*
X129789351Y-80220214D01*
X129687276Y-80296715D01*
X129674715Y-80309276D01*
X129598210Y-80411356D01*
X129593462Y-80420029D01*
X129543204Y-80470174D01*
X129473813Y-80485188D01*
X129401952Y-80456040D01*
X129202829Y-80288956D01*
X129202826Y-80288954D01*
X129199450Y-80286121D01*
X128961236Y-80137269D01*
X128704625Y-80023018D01*
X128434610Y-79945593D01*
X128430260Y-79944982D01*
X128430257Y-79944981D01*
X128327310Y-79930513D01*
X128156448Y-79906500D01*
X127945854Y-79906500D01*
X127943668Y-79906653D01*
X127943664Y-79906653D01*
X127740173Y-79920882D01*
X127740168Y-79920883D01*
X127735788Y-79921189D01*
X127461030Y-79979591D01*
X127456901Y-79981094D01*
X127456897Y-79981095D01*
X127201219Y-80074154D01*
X127201215Y-80074156D01*
X127197074Y-80075663D01*
X126949058Y-80207536D01*
X126945499Y-80210122D01*
X126945497Y-80210123D01*
X126840895Y-80286121D01*
X126721808Y-80372642D01*
X126718644Y-80375698D01*
X126718641Y-80375700D01*
X126635447Y-80456040D01*
X126519748Y-80567769D01*
X126346812Y-80789118D01*
X126344616Y-80792922D01*
X126344611Y-80792929D01*
X126278003Y-80908298D01*
X126206364Y-81032381D01*
X126101138Y-81292824D01*
X126033183Y-81565376D01*
X126032724Y-81569744D01*
X126032723Y-81569749D01*
X126018556Y-81704542D01*
X126003822Y-81844733D01*
X119217000Y-81844733D01*
X119217000Y-71759500D01*
X119237002Y-71691379D01*
X119290658Y-71644886D01*
X119343000Y-71633500D01*
X125604000Y-71633500D01*
X125607346Y-71633140D01*
X125607351Y-71633140D01*
X125709785Y-71622128D01*
X125709792Y-71622127D01*
X125713149Y-71621766D01*
X125716450Y-71621048D01*
X125762210Y-71611094D01*
X125762215Y-71611093D01*
X125765491Y-71610380D01*
X125869657Y-71575710D01*
X125992612Y-71496692D01*
X126002757Y-71487902D01*
X126042875Y-71453139D01*
X126046268Y-71450199D01*
X126101888Y-71386010D01*
X126136081Y-71346550D01*
X126136083Y-71346547D01*
X126141982Y-71339739D01*
X126202698Y-71206790D01*
X126217674Y-71155787D01*
X133372710Y-71155787D01*
X133373400Y-71162352D01*
X133388527Y-71306274D01*
X133392672Y-71345715D01*
X133451687Y-71527343D01*
X133454990Y-71533065D01*
X133454991Y-71533066D01*
X133469460Y-71558127D01*
X133547174Y-71692731D01*
X133674961Y-71834653D01*
X133829462Y-71946905D01*
X133835490Y-71949589D01*
X133835492Y-71949590D01*
X133918421Y-71986512D01*
X134003926Y-72024581D01*
X134097326Y-72044434D01*
X134184270Y-72062915D01*
X134184275Y-72062915D01*
X134190727Y-72064287D01*
X134381701Y-72064287D01*
X134388153Y-72062915D01*
X134388158Y-72062915D01*
X134475102Y-72044434D01*
X134568502Y-72024581D01*
X134654007Y-71986512D01*
X134736936Y-71949590D01*
X134736938Y-71949589D01*
X134742966Y-71946905D01*
X134802594Y-71903583D01*
X134875885Y-71850333D01*
X134897467Y-71834653D01*
X134901882Y-71829750D01*
X134906794Y-71825327D01*
X134908435Y-71827149D01*
X134959424Y-71795737D01*
X134992613Y-71791287D01*
X135355751Y-71791287D01*
X135423872Y-71811289D01*
X135429809Y-71815349D01*
X135556594Y-71907464D01*
X135562622Y-71910148D01*
X135562624Y-71910149D01*
X135636463Y-71943024D01*
X135731058Y-71985140D01*
X135824458Y-72004993D01*
X135911402Y-72023474D01*
X135911407Y-72023474D01*
X135917859Y-72024846D01*
X136108833Y-72024846D01*
X136115285Y-72023474D01*
X136115290Y-72023474D01*
X136202234Y-72004993D01*
X136295634Y-71985140D01*
X136390229Y-71943024D01*
X136464068Y-71910149D01*
X136464070Y-71910148D01*
X136470098Y-71907464D01*
X136624599Y-71795212D01*
X136752386Y-71653290D01*
X136820262Y-71535726D01*
X136844569Y-71493625D01*
X136844570Y-71493624D01*
X136847873Y-71487902D01*
X136906888Y-71306274D01*
X136922401Y-71158681D01*
X136926160Y-71122911D01*
X136926850Y-71116346D01*
X136915863Y-71011809D01*
X136907578Y-70932981D01*
X136907578Y-70932979D01*
X136906888Y-70926418D01*
X136847873Y-70744790D01*
X136752386Y-70579402D01*
X136624599Y-70437480D01*
X136470098Y-70325228D01*
X136464070Y-70322544D01*
X136464068Y-70322543D01*
X136301665Y-70250237D01*
X136301664Y-70250237D01*
X136295634Y-70247552D01*
X136202233Y-70227699D01*
X136115290Y-70209218D01*
X136115285Y-70209218D01*
X136108833Y-70207846D01*
X135917859Y-70207846D01*
X135911407Y-70209218D01*
X135911402Y-70209218D01*
X135824459Y-70227699D01*
X135731058Y-70247552D01*
X135725028Y-70250237D01*
X135725027Y-70250237D01*
X135562624Y-70322543D01*
X135562622Y-70322544D01*
X135556594Y-70325228D01*
X135551253Y-70329108D01*
X135551252Y-70329109D01*
X135423675Y-70421800D01*
X135402093Y-70437480D01*
X135397680Y-70442382D01*
X135397678Y-70442383D01*
X135365070Y-70478598D01*
X135304624Y-70515837D01*
X135271434Y-70520287D01*
X134992613Y-70520287D01*
X134924492Y-70500285D01*
X134907306Y-70485678D01*
X134906794Y-70486247D01*
X134901882Y-70481824D01*
X134897467Y-70476921D01*
X134742966Y-70364669D01*
X134736938Y-70361985D01*
X134736936Y-70361984D01*
X134574533Y-70289678D01*
X134574532Y-70289678D01*
X134568502Y-70286993D01*
X134475102Y-70267140D01*
X134388158Y-70248659D01*
X134388153Y-70248659D01*
X134381701Y-70247287D01*
X134190727Y-70247287D01*
X134184275Y-70248659D01*
X134184270Y-70248659D01*
X134097326Y-70267140D01*
X134003926Y-70286993D01*
X133997896Y-70289678D01*
X133997895Y-70289678D01*
X133835492Y-70361984D01*
X133835490Y-70361985D01*
X133829462Y-70364669D01*
X133674961Y-70476921D01*
X133547174Y-70618843D01*
X133543873Y-70624561D01*
X133477763Y-70739067D01*
X133451687Y-70784231D01*
X133392672Y-70965859D01*
X133391982Y-70972420D01*
X133391982Y-70972422D01*
X133383539Y-71052758D01*
X133372710Y-71155787D01*
X126217674Y-71155787D01*
X126221431Y-71142992D01*
X126221432Y-71142988D01*
X126222700Y-71138669D01*
X126226854Y-71109781D01*
X126242861Y-70998447D01*
X126242861Y-70998442D01*
X126243500Y-70994000D01*
X126243500Y-67978444D01*
X129558000Y-67978444D01*
X129558301Y-67984592D01*
X129571812Y-68122390D01*
X129574195Y-68134425D01*
X129627767Y-68311863D01*
X129632441Y-68323203D01*
X129719460Y-68486864D01*
X129726249Y-68497081D01*
X129843397Y-68640720D01*
X129852041Y-68649424D01*
X129994856Y-68767571D01*
X130005027Y-68774431D01*
X130168076Y-68862591D01*
X130179381Y-68867343D01*
X130294692Y-68903037D01*
X130308795Y-68903243D01*
X130312000Y-68896488D01*
X130312000Y-68889711D01*
X130820000Y-68889711D01*
X130823973Y-68903242D01*
X130831768Y-68904362D01*
X130939521Y-68872649D01*
X130950889Y-68868056D01*
X131115154Y-68782180D01*
X131125415Y-68775466D01*
X131269873Y-68659319D01*
X131278632Y-68650741D01*
X131397778Y-68508748D01*
X131404708Y-68498628D01*
X131494002Y-68336202D01*
X131498834Y-68324929D01*
X131554880Y-68148249D01*
X131557430Y-68136255D01*
X131573607Y-67992026D01*
X131574000Y-67985002D01*
X131574000Y-67768813D01*
X131594002Y-67700692D01*
X131647658Y-67654199D01*
X131717932Y-67644095D01*
X131727486Y-67645848D01*
X131897494Y-67683849D01*
X131897501Y-67683850D01*
X131902543Y-67684977D01*
X131908088Y-67685287D01*
X132041244Y-67685287D01*
X132176037Y-67670644D01*
X132294190Y-67630881D01*
X132341204Y-67615059D01*
X132341206Y-67615058D01*
X132347675Y-67612881D01*
X132502905Y-67519610D01*
X132507862Y-67514922D01*
X132507865Y-67514920D01*
X132629527Y-67399869D01*
X132629529Y-67399867D01*
X132634485Y-67395180D01*
X132638317Y-67389542D01*
X132638320Y-67389538D01*
X132732442Y-67251042D01*
X132736277Y-67245399D01*
X132803530Y-67077253D01*
X132804644Y-67070525D01*
X132804645Y-67070521D01*
X132831993Y-66905326D01*
X132831993Y-66905323D01*
X132833108Y-66898589D01*
X132828203Y-66804985D01*
X136938892Y-66804985D01*
X136939249Y-66811802D01*
X136939249Y-66811806D01*
X136944151Y-66905326D01*
X136948370Y-66985834D01*
X136950181Y-66992407D01*
X136950181Y-66992410D01*
X136983738Y-67114239D01*
X136996461Y-67160428D01*
X137080922Y-67320623D01*
X137085327Y-67325836D01*
X137085330Y-67325840D01*
X137193406Y-67453730D01*
X137193410Y-67453734D01*
X137197813Y-67458944D01*
X137203237Y-67463091D01*
X137203238Y-67463092D01*
X137336257Y-67564793D01*
X137336261Y-67564796D01*
X137341678Y-67568937D01*
X137428372Y-67609363D01*
X137499631Y-67642592D01*
X137499634Y-67642593D01*
X137505808Y-67645472D01*
X137512456Y-67646958D01*
X137512459Y-67646959D01*
X137608686Y-67668468D01*
X137682543Y-67684977D01*
X137688088Y-67685287D01*
X137821244Y-67685287D01*
X137956037Y-67670644D01*
X137962501Y-67668469D01*
X137962504Y-67668468D01*
X138029716Y-67645848D01*
X138031811Y-67645143D01*
X138102753Y-67642373D01*
X138163932Y-67678396D01*
X138195923Y-67741777D01*
X138198000Y-67764562D01*
X138198000Y-67978444D01*
X138198301Y-67984592D01*
X138211812Y-68122390D01*
X138214195Y-68134425D01*
X138267767Y-68311863D01*
X138272441Y-68323203D01*
X138359460Y-68486864D01*
X138366249Y-68497081D01*
X138483397Y-68640720D01*
X138492041Y-68649424D01*
X138634856Y-68767571D01*
X138645027Y-68774431D01*
X138808076Y-68862591D01*
X138819381Y-68867343D01*
X138934692Y-68903037D01*
X138948795Y-68903243D01*
X138952000Y-68896488D01*
X138952000Y-68889711D01*
X139460000Y-68889711D01*
X139463973Y-68903242D01*
X139471768Y-68904362D01*
X139579521Y-68872649D01*
X139590889Y-68868056D01*
X139755154Y-68782180D01*
X139765415Y-68775466D01*
X139909873Y-68659319D01*
X139918632Y-68650741D01*
X140037778Y-68508748D01*
X140044708Y-68498628D01*
X140134002Y-68336202D01*
X140138834Y-68324929D01*
X140194880Y-68148249D01*
X140197430Y-68136255D01*
X140213607Y-67992026D01*
X140214000Y-67985002D01*
X140214000Y-67653902D01*
X140209525Y-67638663D01*
X140208135Y-67637458D01*
X140200452Y-67635787D01*
X139478115Y-67635787D01*
X139462876Y-67640262D01*
X139461671Y-67641652D01*
X139460000Y-67649335D01*
X139460000Y-68889711D01*
X138952000Y-68889711D01*
X138952000Y-67109672D01*
X139460000Y-67109672D01*
X139464475Y-67124911D01*
X139465865Y-67126116D01*
X139473548Y-67127787D01*
X140195885Y-67127787D01*
X140211124Y-67123312D01*
X140212329Y-67121922D01*
X140214000Y-67114239D01*
X140214000Y-66785130D01*
X140213699Y-66778982D01*
X140200188Y-66641184D01*
X140197805Y-66629149D01*
X140144233Y-66451711D01*
X140139559Y-66440371D01*
X140052540Y-66276710D01*
X140045751Y-66266493D01*
X139928603Y-66122854D01*
X139919959Y-66114150D01*
X139777144Y-65996003D01*
X139766973Y-65989143D01*
X139603924Y-65900983D01*
X139592619Y-65896231D01*
X139477308Y-65860537D01*
X139463205Y-65860331D01*
X139460000Y-65867086D01*
X139460000Y-67109672D01*
X138952000Y-67109672D01*
X138952000Y-65873863D01*
X138948027Y-65860332D01*
X138940232Y-65859212D01*
X138832479Y-65890925D01*
X138821111Y-65895518D01*
X138656846Y-65981394D01*
X138646585Y-65988108D01*
X138502127Y-66104255D01*
X138493368Y-66112833D01*
X138449000Y-66165708D01*
X138389890Y-66205035D01*
X138318902Y-66206161D01*
X138275952Y-66184815D01*
X138210322Y-66134637D01*
X138105186Y-66085612D01*
X138052369Y-66060982D01*
X138052366Y-66060981D01*
X138046192Y-66058102D01*
X138039544Y-66056616D01*
X138039541Y-66056615D01*
X137874494Y-66019723D01*
X137874495Y-66019723D01*
X137869457Y-66018597D01*
X137863912Y-66018287D01*
X137730756Y-66018287D01*
X137595963Y-66032930D01*
X137512609Y-66060982D01*
X137430796Y-66088515D01*
X137430794Y-66088516D01*
X137424325Y-66090693D01*
X137269095Y-66183964D01*
X137264138Y-66188652D01*
X137264135Y-66188654D01*
X137142473Y-66303705D01*
X137137515Y-66308394D01*
X137133683Y-66314032D01*
X137133680Y-66314036D01*
X137082740Y-66388992D01*
X137035723Y-66458175D01*
X136968470Y-66626321D01*
X136967356Y-66633049D01*
X136967355Y-66633053D01*
X136942179Y-66785130D01*
X136938892Y-66804985D01*
X132828203Y-66804985D01*
X132823987Y-66724553D01*
X132823630Y-66717740D01*
X132800304Y-66633053D01*
X132777352Y-66549728D01*
X132775539Y-66543146D01*
X132691078Y-66382951D01*
X132686673Y-66377738D01*
X132686670Y-66377734D01*
X132578594Y-66249844D01*
X132578590Y-66249840D01*
X132574187Y-66244630D01*
X132568762Y-66240482D01*
X132435743Y-66138781D01*
X132435739Y-66138778D01*
X132430322Y-66134637D01*
X132325186Y-66085612D01*
X132272369Y-66060982D01*
X132272366Y-66060981D01*
X132266192Y-66058102D01*
X132259544Y-66056616D01*
X132259541Y-66056615D01*
X132094494Y-66019723D01*
X132094495Y-66019723D01*
X132089457Y-66018597D01*
X132083912Y-66018287D01*
X131950756Y-66018287D01*
X131815963Y-66032930D01*
X131732609Y-66060982D01*
X131650796Y-66088515D01*
X131650794Y-66088516D01*
X131644325Y-66090693D01*
X131492349Y-66182009D01*
X131492346Y-66182010D01*
X131489095Y-66183964D01*
X131488745Y-66183381D01*
X131427083Y-66206852D01*
X131357609Y-66192226D01*
X131319609Y-66160872D01*
X131288603Y-66122854D01*
X131279959Y-66114150D01*
X131137144Y-65996003D01*
X131126973Y-65989143D01*
X130963924Y-65900983D01*
X130952619Y-65896231D01*
X130837308Y-65860537D01*
X130823205Y-65860331D01*
X130820000Y-65867086D01*
X130820000Y-68889711D01*
X130312000Y-68889711D01*
X130312000Y-67653902D01*
X130307525Y-67638663D01*
X130306135Y-67637458D01*
X130298452Y-67635787D01*
X129576115Y-67635787D01*
X129560876Y-67640262D01*
X129559671Y-67641652D01*
X129558000Y-67649335D01*
X129558000Y-67978444D01*
X126243500Y-67978444D01*
X126243500Y-67109672D01*
X129558000Y-67109672D01*
X129562475Y-67124911D01*
X129563865Y-67126116D01*
X129571548Y-67127787D01*
X130293885Y-67127787D01*
X130309124Y-67123312D01*
X130310329Y-67121922D01*
X130312000Y-67114239D01*
X130312000Y-65873863D01*
X130308027Y-65860332D01*
X130300232Y-65859212D01*
X130192479Y-65890925D01*
X130181111Y-65895518D01*
X130016846Y-65981394D01*
X130006585Y-65988108D01*
X129862127Y-66104255D01*
X129853368Y-66112833D01*
X129734222Y-66254826D01*
X129727292Y-66264946D01*
X129637998Y-66427372D01*
X129633166Y-66438645D01*
X129577120Y-66615325D01*
X129574570Y-66627319D01*
X129558393Y-66771548D01*
X129558000Y-66778572D01*
X129558000Y-67109672D01*
X126243500Y-67109672D01*
X126243500Y-64261500D01*
X126263502Y-64193379D01*
X126317158Y-64146886D01*
X126369500Y-64135500D01*
X127677021Y-64135500D01*
X127697918Y-64137245D01*
X127712929Y-64139770D01*
X127712934Y-64139770D01*
X127717730Y-64140577D01*
X127722595Y-64140636D01*
X127722596Y-64140636D01*
X127723546Y-64140647D01*
X127730282Y-64140729D01*
X127735087Y-64140041D01*
X127735097Y-64140040D01*
X127744942Y-64138629D01*
X127752907Y-64137745D01*
X127934620Y-64123434D01*
X128034272Y-64099505D01*
X128129103Y-64076734D01*
X128129107Y-64076733D01*
X128133924Y-64075576D01*
X128246156Y-64029084D01*
X128318715Y-63999026D01*
X128318717Y-63999025D01*
X128323289Y-63997131D01*
X128327508Y-63994546D01*
X128327511Y-63994544D01*
X128493830Y-63892619D01*
X128498053Y-63890031D01*
X128653913Y-63756913D01*
X128787031Y-63601053D01*
X128819271Y-63548444D01*
X129558000Y-63548444D01*
X129558301Y-63554592D01*
X129571812Y-63692390D01*
X129574195Y-63704425D01*
X129627767Y-63881863D01*
X129632441Y-63893203D01*
X129719460Y-64056864D01*
X129726249Y-64067081D01*
X129843397Y-64210720D01*
X129852041Y-64219424D01*
X129994856Y-64337571D01*
X130005027Y-64344431D01*
X130168076Y-64432591D01*
X130179381Y-64437343D01*
X130294692Y-64473037D01*
X130308795Y-64473243D01*
X130312000Y-64466488D01*
X130312000Y-64459711D01*
X130820000Y-64459711D01*
X130823973Y-64473242D01*
X130831768Y-64474362D01*
X130939521Y-64442649D01*
X130950889Y-64438056D01*
X131115154Y-64352180D01*
X131125415Y-64345466D01*
X131269873Y-64229319D01*
X131278632Y-64220741D01*
X131397778Y-64078748D01*
X131404708Y-64068628D01*
X131494002Y-63906202D01*
X131498834Y-63894929D01*
X131554880Y-63718249D01*
X131557430Y-63706255D01*
X131573607Y-63562026D01*
X131574000Y-63555002D01*
X131574000Y-63548444D01*
X138198000Y-63548444D01*
X138198301Y-63554592D01*
X138211812Y-63692390D01*
X138214195Y-63704425D01*
X138267767Y-63881863D01*
X138272441Y-63893203D01*
X138359460Y-64056864D01*
X138366249Y-64067081D01*
X138483397Y-64210720D01*
X138492041Y-64219424D01*
X138634856Y-64337571D01*
X138645027Y-64344431D01*
X138808076Y-64432591D01*
X138819381Y-64437343D01*
X138934692Y-64473037D01*
X138948795Y-64473243D01*
X138952000Y-64466488D01*
X138952000Y-64459711D01*
X139460000Y-64459711D01*
X139463973Y-64473242D01*
X139471768Y-64474362D01*
X139579521Y-64442649D01*
X139590889Y-64438056D01*
X139755154Y-64352180D01*
X139765415Y-64345466D01*
X139909873Y-64229319D01*
X139918632Y-64220741D01*
X140037778Y-64078748D01*
X140044708Y-64068628D01*
X140134002Y-63906202D01*
X140138834Y-63894929D01*
X140194880Y-63718249D01*
X140197430Y-63706255D01*
X140213607Y-63562026D01*
X140214000Y-63555002D01*
X140214000Y-63473902D01*
X140209525Y-63458663D01*
X140208135Y-63457458D01*
X140200452Y-63455787D01*
X139478115Y-63455787D01*
X139462876Y-63460262D01*
X139461671Y-63461652D01*
X139460000Y-63469335D01*
X139460000Y-64459711D01*
X138952000Y-64459711D01*
X138952000Y-63473902D01*
X138947525Y-63458663D01*
X138946135Y-63457458D01*
X138938452Y-63455787D01*
X138216115Y-63455787D01*
X138200876Y-63460262D01*
X138199671Y-63461652D01*
X138198000Y-63469335D01*
X138198000Y-63548444D01*
X131574000Y-63548444D01*
X131574000Y-63473902D01*
X131569525Y-63458663D01*
X131568135Y-63457458D01*
X131560452Y-63455787D01*
X130838115Y-63455787D01*
X130822876Y-63460262D01*
X130821671Y-63461652D01*
X130820000Y-63469335D01*
X130820000Y-64459711D01*
X130312000Y-64459711D01*
X130312000Y-63473902D01*
X130307525Y-63458663D01*
X130306135Y-63457458D01*
X130298452Y-63455787D01*
X129576115Y-63455787D01*
X129560876Y-63460262D01*
X129559671Y-63461652D01*
X129558000Y-63469335D01*
X129558000Y-63548444D01*
X128819271Y-63548444D01*
X128891544Y-63430511D01*
X128891546Y-63430508D01*
X128894131Y-63426289D01*
X128972576Y-63236924D01*
X128984740Y-63186270D01*
X129002049Y-63114184D01*
X129020434Y-63037620D01*
X129028576Y-62934239D01*
X129033311Y-62874115D01*
X129034670Y-62863095D01*
X129036767Y-62850636D01*
X129036767Y-62850633D01*
X129037575Y-62845834D01*
X129037729Y-62833282D01*
X129033771Y-62805632D01*
X129032500Y-62787778D01*
X129032500Y-62092750D01*
X129034246Y-62071845D01*
X129036770Y-62056844D01*
X129036770Y-62056841D01*
X129037576Y-62052052D01*
X129037729Y-62039500D01*
X129037039Y-62034679D01*
X129036852Y-62031816D01*
X129038137Y-62003915D01*
X129043338Y-61971077D01*
X129055522Y-61933582D01*
X129077914Y-61889638D01*
X129101085Y-61857747D01*
X129135959Y-61822874D01*
X129167851Y-61799704D01*
X129211802Y-61777312D01*
X129249295Y-61765133D01*
X129284038Y-61759633D01*
X129303578Y-61758216D01*
X129311442Y-61759441D01*
X129320348Y-61758277D01*
X129320349Y-61758277D01*
X129343026Y-61755313D01*
X129359355Y-61754250D01*
X130072249Y-61754250D01*
X130140370Y-61774252D01*
G37*
%TD.AperFunction*%
%TD*%
%TA.AperFunction,Conductor*%
%TO.N,+1V1*%
G36*
X136625138Y-114825593D02*
G01*
X136650858Y-114870142D01*
X136652000Y-114883200D01*
X136652000Y-121590800D01*
X136634407Y-121639138D01*
X136589858Y-121664858D01*
X136576800Y-121666000D01*
X134949200Y-121666000D01*
X134900862Y-121648407D01*
X134875142Y-121603858D01*
X134874000Y-121590800D01*
X134874000Y-119729918D01*
X134886855Y-119692048D01*
X134885072Y-119691019D01*
X134887537Y-119686749D01*
X134890536Y-119682841D01*
X134951044Y-119536762D01*
X134971682Y-119380000D01*
X134951044Y-119223238D01*
X134890536Y-119077159D01*
X134887537Y-119073251D01*
X134885072Y-119068981D01*
X134886855Y-119067952D01*
X134874000Y-119030082D01*
X134874000Y-118586918D01*
X134886855Y-118549048D01*
X134885072Y-118548019D01*
X134887537Y-118543749D01*
X134890536Y-118539841D01*
X134951044Y-118393762D01*
X134971682Y-118237000D01*
X134951044Y-118080238D01*
X134890536Y-117934159D01*
X134887537Y-117930251D01*
X134885072Y-117925981D01*
X134886855Y-117924952D01*
X134874000Y-117887082D01*
X134874000Y-117443918D01*
X134886855Y-117406048D01*
X134885072Y-117405019D01*
X134887537Y-117400749D01*
X134890536Y-117396841D01*
X134951044Y-117250762D01*
X134971682Y-117094000D01*
X134951044Y-116937238D01*
X134890536Y-116791159D01*
X134887537Y-116787251D01*
X134885072Y-116782981D01*
X134886855Y-116781952D01*
X134874000Y-116744082D01*
X134874000Y-116586000D01*
X134715918Y-116586000D01*
X134678048Y-116573145D01*
X134677019Y-116574928D01*
X134672749Y-116572463D01*
X134668841Y-116569464D01*
X134522762Y-116508956D01*
X134517884Y-116508314D01*
X134517881Y-116508313D01*
X134370884Y-116488961D01*
X134366000Y-116488318D01*
X134361116Y-116488961D01*
X134214119Y-116508313D01*
X134214116Y-116508314D01*
X134209238Y-116508956D01*
X134063159Y-116569464D01*
X134059251Y-116572463D01*
X134054981Y-116574928D01*
X134053952Y-116573145D01*
X134016082Y-116586000D01*
X133572918Y-116586000D01*
X133535048Y-116573145D01*
X133534019Y-116574928D01*
X133529749Y-116572463D01*
X133525841Y-116569464D01*
X133379762Y-116508956D01*
X133374884Y-116508314D01*
X133374881Y-116508313D01*
X133227884Y-116488961D01*
X133223000Y-116488318D01*
X133218116Y-116488961D01*
X133071119Y-116508313D01*
X133071116Y-116508314D01*
X133066238Y-116508956D01*
X132920159Y-116569464D01*
X132916251Y-116572463D01*
X132911981Y-116574928D01*
X132910952Y-116573145D01*
X132873082Y-116586000D01*
X132429918Y-116586000D01*
X132392048Y-116573145D01*
X132391019Y-116574928D01*
X132386749Y-116572463D01*
X132382841Y-116569464D01*
X132236762Y-116508956D01*
X132231884Y-116508314D01*
X132231881Y-116508313D01*
X132084884Y-116488961D01*
X132080000Y-116488318D01*
X132075116Y-116488961D01*
X131928119Y-116508313D01*
X131928116Y-116508314D01*
X131923238Y-116508956D01*
X131777159Y-116569464D01*
X131773251Y-116572463D01*
X131768981Y-116574928D01*
X131767952Y-116573145D01*
X131730082Y-116586000D01*
X129869200Y-116586000D01*
X129820862Y-116568407D01*
X129795142Y-116523858D01*
X129794000Y-116510800D01*
X129794000Y-114883200D01*
X129811593Y-114834862D01*
X129856142Y-114809142D01*
X129869200Y-114808000D01*
X136576800Y-114808000D01*
X136625138Y-114825593D01*
G37*
%TD.AperFunction*%
%TD*%
%TA.AperFunction,Conductor*%
%TO.N,/COL1*%
G36*
X166594018Y-64137000D02*
G01*
X166608852Y-64139310D01*
X166608855Y-64139310D01*
X166617724Y-64140691D01*
X166626627Y-64139527D01*
X166626628Y-64139527D01*
X166639874Y-64137795D01*
X166660703Y-64136811D01*
X166904312Y-64145511D01*
X167149486Y-64154268D01*
X167158458Y-64154910D01*
X167676782Y-64210636D01*
X167685685Y-64211916D01*
X167942202Y-64258196D01*
X168198723Y-64304478D01*
X168207507Y-64306389D01*
X168712636Y-64435315D01*
X168721256Y-64437847D01*
X168851911Y-64481333D01*
X169215898Y-64602479D01*
X169224325Y-64605622D01*
X169705965Y-64805124D01*
X169714147Y-64808861D01*
X170180312Y-65042206D01*
X170188206Y-65046516D01*
X170636551Y-65312532D01*
X170644118Y-65317395D01*
X171072339Y-65614714D01*
X171079539Y-65620104D01*
X171485452Y-65947209D01*
X171492250Y-65953099D01*
X171873802Y-66308338D01*
X171880162Y-66314698D01*
X172235401Y-66696250D01*
X172241291Y-66703048D01*
X172568396Y-67108961D01*
X172573786Y-67116161D01*
X172871105Y-67544382D01*
X172875968Y-67551949D01*
X173141984Y-68000294D01*
X173146294Y-68008188D01*
X173379639Y-68474353D01*
X173383376Y-68482535D01*
X173582878Y-68964175D01*
X173586021Y-68972602D01*
X173750652Y-69467239D01*
X173753185Y-69475864D01*
X173795392Y-69641231D01*
X173882111Y-69980991D01*
X173884023Y-69989780D01*
X173976584Y-70502815D01*
X173977864Y-70511718D01*
X174033590Y-71030042D01*
X174034232Y-71039014D01*
X174051420Y-71520269D01*
X174050000Y-71544149D01*
X174049190Y-71549348D01*
X174049190Y-71549355D01*
X174047809Y-71558224D01*
X174048973Y-71567126D01*
X174048973Y-71567128D01*
X174051936Y-71589783D01*
X174053000Y-71606121D01*
X174053000Y-127077633D01*
X174051500Y-127097018D01*
X174047809Y-127120724D01*
X174048973Y-127129627D01*
X174048973Y-127129628D01*
X174050705Y-127142874D01*
X174051689Y-127163703D01*
X174047681Y-127275932D01*
X174034232Y-127652486D01*
X174033590Y-127661458D01*
X173977864Y-128179782D01*
X173976584Y-128188685D01*
X173963695Y-128260126D01*
X173911470Y-128549593D01*
X173884023Y-128701720D01*
X173882111Y-128710507D01*
X173768022Y-129157506D01*
X173753186Y-129215631D01*
X173750652Y-129224261D01*
X173586021Y-129718898D01*
X173582878Y-129727325D01*
X173383376Y-130208965D01*
X173379639Y-130217147D01*
X173146294Y-130683312D01*
X173141984Y-130691206D01*
X172875968Y-131139551D01*
X172871105Y-131147118D01*
X172573786Y-131575339D01*
X172568396Y-131582539D01*
X172241291Y-131988452D01*
X172235401Y-131995250D01*
X171880162Y-132376802D01*
X171873802Y-132383162D01*
X171492250Y-132738401D01*
X171485452Y-132744291D01*
X171079539Y-133071396D01*
X171072339Y-133076786D01*
X170644118Y-133374105D01*
X170636551Y-133378968D01*
X170188206Y-133644984D01*
X170180312Y-133649294D01*
X169714147Y-133882639D01*
X169705965Y-133886376D01*
X169224325Y-134085878D01*
X169215898Y-134089021D01*
X168851911Y-134210167D01*
X168721256Y-134253653D01*
X168712636Y-134256185D01*
X168207509Y-134385111D01*
X168198723Y-134387022D01*
X167960513Y-134430000D01*
X167685685Y-134479584D01*
X167676782Y-134480864D01*
X167158458Y-134536590D01*
X167149486Y-134537232D01*
X166668231Y-134554420D01*
X166644351Y-134553000D01*
X166639152Y-134552190D01*
X166639145Y-134552190D01*
X166630276Y-134550809D01*
X166621374Y-134551973D01*
X166621372Y-134551973D01*
X166606323Y-134553941D01*
X166598714Y-134554936D01*
X166582379Y-134556000D01*
X151256000Y-134556000D01*
X151187879Y-134535998D01*
X151141386Y-134482342D01*
X151130000Y-134430000D01*
X151130000Y-127996655D01*
X165371858Y-127996655D01*
X165407104Y-128255638D01*
X165408412Y-128260124D01*
X165408412Y-128260126D01*
X165428098Y-128327664D01*
X165480243Y-128506567D01*
X165589668Y-128743928D01*
X165592231Y-128747837D01*
X165730410Y-128958596D01*
X165730414Y-128958601D01*
X165732976Y-128962509D01*
X165907018Y-129157506D01*
X166107970Y-129324637D01*
X166111973Y-129327066D01*
X166327422Y-129457804D01*
X166327426Y-129457806D01*
X166331419Y-129460229D01*
X166572455Y-129561303D01*
X166825783Y-129625641D01*
X166830434Y-129626109D01*
X166830438Y-129626110D01*
X167023308Y-129645531D01*
X167042867Y-129647500D01*
X167198354Y-129647500D01*
X167200679Y-129647327D01*
X167200685Y-129647327D01*
X167388000Y-129633407D01*
X167388004Y-129633406D01*
X167392652Y-129633061D01*
X167397200Y-129632032D01*
X167397206Y-129632031D01*
X167583601Y-129589853D01*
X167647577Y-129575377D01*
X167683769Y-129561303D01*
X167886824Y-129482340D01*
X167886827Y-129482339D01*
X167891177Y-129480647D01*
X168118098Y-129350951D01*
X168323357Y-129189138D01*
X168502443Y-128998763D01*
X168651424Y-128784009D01*
X168689821Y-128706148D01*
X168764960Y-128553781D01*
X168764961Y-128553778D01*
X168767025Y-128549593D01*
X168846707Y-128300665D01*
X168888721Y-128042693D01*
X168892142Y-127781345D01*
X168856896Y-127522362D01*
X168842473Y-127472877D01*
X168785068Y-127275932D01*
X168783757Y-127271433D01*
X168674332Y-127034072D01*
X168641519Y-126984024D01*
X168533590Y-126819404D01*
X168533586Y-126819399D01*
X168531024Y-126815491D01*
X168356982Y-126620494D01*
X168156030Y-126453363D01*
X168108844Y-126424730D01*
X167936578Y-126320196D01*
X167936574Y-126320194D01*
X167932581Y-126317771D01*
X167691545Y-126216697D01*
X167438217Y-126152359D01*
X167433566Y-126151891D01*
X167433562Y-126151890D01*
X167224271Y-126130816D01*
X167221133Y-126130500D01*
X167065646Y-126130500D01*
X167063321Y-126130673D01*
X167063315Y-126130673D01*
X166876000Y-126144593D01*
X166875996Y-126144594D01*
X166871348Y-126144939D01*
X166866800Y-126145968D01*
X166866794Y-126145969D01*
X166680399Y-126188147D01*
X166616423Y-126202623D01*
X166612071Y-126204315D01*
X166612069Y-126204316D01*
X166377176Y-126295660D01*
X166377173Y-126295661D01*
X166372823Y-126297353D01*
X166145902Y-126427049D01*
X165940643Y-126588862D01*
X165761557Y-126779237D01*
X165612576Y-126993991D01*
X165610510Y-126998181D01*
X165610508Y-126998184D01*
X165537293Y-127146651D01*
X165496975Y-127228407D01*
X165417293Y-127477335D01*
X165375279Y-127735307D01*
X165371858Y-127996655D01*
X151130000Y-127996655D01*
X151130000Y-107327767D01*
X151150002Y-107259646D01*
X151203658Y-107213153D01*
X151256000Y-107201767D01*
X156038357Y-107201767D01*
X156057307Y-107203200D01*
X156071706Y-107205391D01*
X156071712Y-107205391D01*
X156078941Y-107206491D01*
X156086233Y-107205898D01*
X156086236Y-107205898D01*
X156131916Y-107202182D01*
X156142131Y-107201767D01*
X156150258Y-107201767D01*
X156153894Y-107201343D01*
X156153896Y-107201343D01*
X156157348Y-107200940D01*
X156178657Y-107198456D01*
X156182977Y-107198029D01*
X156256159Y-107192076D01*
X156263121Y-107189820D01*
X156269109Y-107188624D01*
X156275066Y-107187216D01*
X156282340Y-107186368D01*
X156289222Y-107183870D01*
X156289226Y-107183869D01*
X156351340Y-107161322D01*
X156355444Y-107159912D01*
X156425308Y-107137280D01*
X156431571Y-107133480D01*
X156437113Y-107130942D01*
X156442589Y-107128200D01*
X156449474Y-107125701D01*
X156510865Y-107085452D01*
X156514533Y-107083137D01*
X156577314Y-107045040D01*
X156581519Y-107041326D01*
X156581522Y-107041324D01*
X156585738Y-107037600D01*
X156585764Y-107037629D01*
X156588695Y-107035029D01*
X156592049Y-107032225D01*
X156598168Y-107028213D01*
X156651722Y-106971680D01*
X156654099Y-106969239D01*
X156906433Y-106716905D01*
X156968745Y-106682879D01*
X156995528Y-106680000D01*
X165100000Y-106680000D01*
X165100000Y-80010000D01*
X165090731Y-80003171D01*
X165090730Y-80003169D01*
X156059871Y-73348852D01*
X153035000Y-71120000D01*
X148081000Y-71120000D01*
X148012879Y-71099998D01*
X147966386Y-71046342D01*
X147955000Y-70994000D01*
X147955000Y-70211655D01*
X165244858Y-70211655D01*
X165280104Y-70470638D01*
X165281412Y-70475124D01*
X165281412Y-70475126D01*
X165301098Y-70542664D01*
X165353243Y-70721567D01*
X165462668Y-70958928D01*
X165465231Y-70962837D01*
X165603410Y-71173596D01*
X165603414Y-71173601D01*
X165605976Y-71177509D01*
X165780018Y-71372506D01*
X165980970Y-71539637D01*
X165984973Y-71542066D01*
X166200422Y-71672804D01*
X166200426Y-71672806D01*
X166204419Y-71675229D01*
X166445455Y-71776303D01*
X166698783Y-71840641D01*
X166703434Y-71841109D01*
X166703438Y-71841110D01*
X166896308Y-71860531D01*
X166915867Y-71862500D01*
X167071354Y-71862500D01*
X167073679Y-71862327D01*
X167073685Y-71862327D01*
X167261000Y-71848407D01*
X167261004Y-71848406D01*
X167265652Y-71848061D01*
X167270200Y-71847032D01*
X167270206Y-71847031D01*
X167456601Y-71804853D01*
X167520577Y-71790377D01*
X167556769Y-71776303D01*
X167759824Y-71697340D01*
X167759827Y-71697339D01*
X167764177Y-71695647D01*
X167991098Y-71565951D01*
X168196357Y-71404138D01*
X168375443Y-71213763D01*
X168491588Y-71046342D01*
X168521759Y-71002851D01*
X168521761Y-71002848D01*
X168524424Y-70999009D01*
X168582333Y-70881581D01*
X168637960Y-70768781D01*
X168637961Y-70768778D01*
X168640025Y-70764593D01*
X168719707Y-70515665D01*
X168761721Y-70257693D01*
X168765142Y-69996345D01*
X168729896Y-69737362D01*
X168715473Y-69687877D01*
X168658068Y-69490932D01*
X168656757Y-69486433D01*
X168647909Y-69467239D01*
X168549289Y-69253318D01*
X168547332Y-69249072D01*
X168441729Y-69088000D01*
X168406590Y-69034404D01*
X168406586Y-69034399D01*
X168404024Y-69030491D01*
X168229982Y-68835494D01*
X168029030Y-68668363D01*
X167981844Y-68639730D01*
X167809578Y-68535196D01*
X167809574Y-68535194D01*
X167805581Y-68532771D01*
X167564545Y-68431697D01*
X167311217Y-68367359D01*
X167306566Y-68366891D01*
X167306562Y-68366890D01*
X167097271Y-68345816D01*
X167094133Y-68345500D01*
X166938646Y-68345500D01*
X166936321Y-68345673D01*
X166936315Y-68345673D01*
X166749000Y-68359593D01*
X166748996Y-68359594D01*
X166744348Y-68359939D01*
X166739800Y-68360968D01*
X166739794Y-68360969D01*
X166553399Y-68403147D01*
X166489423Y-68417623D01*
X166485071Y-68419315D01*
X166485069Y-68419316D01*
X166250176Y-68510660D01*
X166250173Y-68510661D01*
X166245823Y-68512353D01*
X166018902Y-68642049D01*
X165813643Y-68803862D01*
X165634557Y-68994237D01*
X165485576Y-69208991D01*
X165369975Y-69443407D01*
X165368553Y-69447850D01*
X165368552Y-69447852D01*
X165359592Y-69475843D01*
X165290293Y-69692335D01*
X165248279Y-69950307D01*
X165244858Y-70211655D01*
X147955000Y-70211655D01*
X147955000Y-69088000D01*
X146050000Y-69088000D01*
X146050000Y-70994000D01*
X146029998Y-71062121D01*
X145976342Y-71108614D01*
X145924000Y-71120000D01*
X143637585Y-71120000D01*
X143569464Y-71099998D01*
X143522971Y-71046342D01*
X143511595Y-70992425D01*
X143595752Y-64259925D01*
X143616604Y-64192060D01*
X143670836Y-64146241D01*
X143721742Y-64135500D01*
X166574633Y-64135500D01*
X166594018Y-64137000D01*
G37*
%TD.AperFunction*%
%TD*%
%TA.AperFunction,Conductor*%
%TO.N,/COL0*%
G36*
X125672121Y-64155502D02*
G01*
X125718614Y-64209158D01*
X125730000Y-64261500D01*
X125730000Y-70994000D01*
X125709998Y-71062121D01*
X125656342Y-71108614D01*
X125604000Y-71120000D01*
X105410000Y-71120000D01*
X105410000Y-123064000D01*
X105389998Y-123132121D01*
X105336342Y-123178614D01*
X105284000Y-123190000D01*
X95821000Y-123190000D01*
X95752879Y-123169998D01*
X95706386Y-123116342D01*
X95695000Y-123064000D01*
X95695000Y-71617750D01*
X95696746Y-71596845D01*
X95699270Y-71581844D01*
X95699270Y-71581841D01*
X95700076Y-71577052D01*
X95700229Y-71564500D01*
X95697637Y-71546398D01*
X95696445Y-71524042D01*
X95713768Y-71039014D01*
X95714410Y-71030042D01*
X95770136Y-70511718D01*
X95771416Y-70502815D01*
X95823947Y-70211655D01*
X101109858Y-70211655D01*
X101145104Y-70470638D01*
X101146412Y-70475124D01*
X101146412Y-70475126D01*
X101166098Y-70542664D01*
X101218243Y-70721567D01*
X101327668Y-70958928D01*
X101330231Y-70962837D01*
X101468410Y-71173596D01*
X101468414Y-71173601D01*
X101470976Y-71177509D01*
X101645018Y-71372506D01*
X101845970Y-71539637D01*
X101876600Y-71558224D01*
X102065422Y-71672804D01*
X102065426Y-71672806D01*
X102069419Y-71675229D01*
X102310455Y-71776303D01*
X102563783Y-71840641D01*
X102568434Y-71841109D01*
X102568438Y-71841110D01*
X102761308Y-71860531D01*
X102780867Y-71862500D01*
X102936354Y-71862500D01*
X102938679Y-71862327D01*
X102938685Y-71862327D01*
X103126000Y-71848407D01*
X103126004Y-71848406D01*
X103130652Y-71848061D01*
X103135200Y-71847032D01*
X103135206Y-71847031D01*
X103321601Y-71804853D01*
X103385577Y-71790377D01*
X103421769Y-71776303D01*
X103624824Y-71697340D01*
X103624827Y-71697339D01*
X103629177Y-71695647D01*
X103856098Y-71565951D01*
X104061357Y-71404138D01*
X104240443Y-71213763D01*
X104346116Y-71061437D01*
X104386759Y-71002851D01*
X104386761Y-71002848D01*
X104389424Y-70999009D01*
X104505025Y-70764593D01*
X104584707Y-70515665D01*
X104626721Y-70257693D01*
X104630142Y-69996345D01*
X104594896Y-69737362D01*
X104580473Y-69687877D01*
X104523068Y-69490932D01*
X104521757Y-69486433D01*
X104512909Y-69467239D01*
X104414289Y-69253318D01*
X104412332Y-69249072D01*
X104379519Y-69199024D01*
X104271590Y-69034404D01*
X104271586Y-69034399D01*
X104269024Y-69030491D01*
X104094982Y-68835494D01*
X103894030Y-68668363D01*
X103846844Y-68639730D01*
X103674578Y-68535196D01*
X103674574Y-68535194D01*
X103670581Y-68532771D01*
X103429545Y-68431697D01*
X103176217Y-68367359D01*
X103171566Y-68366891D01*
X103171562Y-68366890D01*
X102962271Y-68345816D01*
X102959133Y-68345500D01*
X102803646Y-68345500D01*
X102801321Y-68345673D01*
X102801315Y-68345673D01*
X102614000Y-68359593D01*
X102613996Y-68359594D01*
X102609348Y-68359939D01*
X102604800Y-68360968D01*
X102604794Y-68360969D01*
X102418399Y-68403147D01*
X102354423Y-68417623D01*
X102350071Y-68419315D01*
X102350069Y-68419316D01*
X102115176Y-68510660D01*
X102115173Y-68510661D01*
X102110823Y-68512353D01*
X101883902Y-68642049D01*
X101678643Y-68803862D01*
X101499557Y-68994237D01*
X101350576Y-69208991D01*
X101234975Y-69443407D01*
X101233553Y-69447850D01*
X101233552Y-69447852D01*
X101224584Y-69475869D01*
X101155293Y-69692335D01*
X101113279Y-69950307D01*
X101109858Y-70211655D01*
X95823947Y-70211655D01*
X95863977Y-69989780D01*
X95865889Y-69980991D01*
X95940702Y-69687877D01*
X95994815Y-69475864D01*
X95997348Y-69467239D01*
X96161979Y-68972602D01*
X96165122Y-68964175D01*
X96364624Y-68482535D01*
X96368361Y-68474353D01*
X96601706Y-68008188D01*
X96606016Y-68000294D01*
X96872032Y-67551949D01*
X96876895Y-67544382D01*
X97174214Y-67116161D01*
X97179604Y-67108961D01*
X97506709Y-66703048D01*
X97512599Y-66696250D01*
X97867838Y-66314698D01*
X97874198Y-66308338D01*
X98255750Y-65953099D01*
X98262548Y-65947209D01*
X98668461Y-65620104D01*
X98675661Y-65614714D01*
X99103882Y-65317395D01*
X99111449Y-65312532D01*
X99559794Y-65046516D01*
X99567688Y-65042206D01*
X100033853Y-64808861D01*
X100042035Y-64805124D01*
X100523675Y-64605622D01*
X100532102Y-64602479D01*
X100896089Y-64481333D01*
X101026744Y-64437847D01*
X101035364Y-64435315D01*
X101540493Y-64306389D01*
X101549277Y-64304478D01*
X101805798Y-64258196D01*
X102062315Y-64211916D01*
X102071218Y-64210636D01*
X102589542Y-64154910D01*
X102598514Y-64154268D01*
X103079769Y-64137080D01*
X103103649Y-64138500D01*
X103108848Y-64139310D01*
X103108855Y-64139310D01*
X103117724Y-64140691D01*
X103126626Y-64139527D01*
X103126628Y-64139527D01*
X103145338Y-64137080D01*
X103149286Y-64136564D01*
X103165621Y-64135500D01*
X125604000Y-64135500D01*
X125672121Y-64155502D01*
G37*
%TD.AperFunction*%
%TD*%
M02*
