M48
; DRILL file {KiCad (6.0.9)} date Sun Nov 13 08:17:24 2022
; FORMAT={-:-/ absolute / inch / decimal}
; #@! TF.CreationDate,2022-11-13T08:17:24+04:00
; #@! TF.GenerationSoftware,Kicad,Pcbnew,(6.0.9)
; #@! TF.FileFunction,Plated,1,2,PTH
FMAT,2
INCH
; #@! TA.AperFunction,Plated,PTH,ViaDrill
T1C0.0118
; #@! TA.AperFunction,Plated,PTH,ViaDrill
T2C0.0157
; #@! TA.AperFunction,Plated,PTH,ComponentDrill
T3C0.0236
; #@! TA.AperFunction,Plated,PTH,ComponentDrill
T4C0.0409
%
G90
G05
T1
X5.16Y-4.57
X5.305Y-4.56
X5.33Y-4.74
T2
X4.25Y-3.595
X4.325Y-3.46
X4.37Y-4.145
X4.4Y-3.87
X4.675Y-3.94
X4.73Y-4.135
X4.8Y-4.47
X4.895Y-4.55
X4.955Y-4.775
X5.0117Y-4.6343
X5.03Y-4.415
X5.0511Y-4.6343
X5.095Y-5.055
X5.1419Y-2.7264
X5.1614Y-4.8492
X5.2Y-4.61
X5.2Y-4.655
X5.2Y-4.7
X5.205Y-5.105
X5.245Y-4.61
X5.245Y-4.655
X5.245Y-4.7
X5.255Y-4.39
X5.2869Y-2.8014
X5.29Y-4.61
X5.29Y-4.655
X5.29Y-4.7
X5.3246Y-4.9504
X5.3549Y-2.7999
X5.38Y-4.845
X5.3825Y-4.9325
X5.4569Y-3.0064
X5.465Y-4.825
X5.47Y-4.425
X5.4769Y-2.7264
X5.555Y-4.825
X5.565Y-4.34
X5.5869Y-2.9564
X5.615Y-4.895
X5.63Y-4.575
X5.645Y-3.825
X5.665Y-4.48
X5.7869Y-2.7564
X5.94Y-3.945
X6.1319Y-3.0364
T4
X4.89Y-3.625
X4.99Y-3.625
X5.645Y-3.625
X5.745Y-3.625
T3
G00X5.1404Y-2.5001
M15
G01X5.1404Y-2.4764
M16
G05
G00X5.1404Y-2.6745
M15
G01X5.1404Y-2.6312
M16
G05
G00X5.4806Y-2.5001
M15
G01X5.4806Y-2.4764
M16
G05
G00X5.4806Y-2.6745
M15
G01X5.4806Y-2.6312
M16
G05
T0
M30
